<svg width="480" height="480" viewBox="0 0 480 480" fill="none" xmlns="http://www.w3.org/2000/svg">
    <path
        d="M140.28 90.8q6.96 0 13.12 2.96a33.9 33.9 0 0 1 10.72 8.08q4.56 5.12 7.2 12t2.64 14.72-2.64 14.72q-2.64 6.8-7.2 11.92a33.9 33.9 0 0 1-10.72 8.08q-6.16 2.96-13.12 2.96t-13.12-2.96q-6.08-2.96-10.64-8.08t-7.2-11.92q-2.64-6.88-2.64-14.72t2.64-14.72 7.2-12 10.64-8.08q6.16-2.96 13.12-2.96m.8 34.4q2.72 0 5.04-1.04 2.4-1.04 4.16-2.8a13.6 13.6 0 0 0 2.8-4.08q1.04-2.4 1.04-5.12t-1.04-5.04q-1.04-2.4-2.8-4.16t-4.16-2.8q-2.32-1.04-5.04-1.04t-5.12 1.04a13.6 13.6 0 0 0-4.08 2.8q-1.76 1.76-2.8 4.16-1.04 2.32-1.04 5.04t1.04 5.12a13.6 13.6 0 0 0 2.8 4.08 13.6 13.6 0 0 0 4.08 2.8q2.4 1.04 5.12 1.04m9.76-28q0 .88.56 1.52.64.56 1.52.56t1.52-.56q.64-.64.64-1.52t-.64-1.52a2.08 2.08 0 0 0-1.52-.64q-.88 0-1.52.64-.56.64-.56 1.52M127.48 124q0 .88.56 1.52.64.56 1.52.56t1.52-.56q.64-.64.64-1.52t-.64-1.52a2.08 2.08 0 0 0-1.52-.64q-.88 0-1.52.64-.56.64-.56 1.52m77.681-21.2q6.56 0 12.32 2.48 5.84 2.48 10.16 6.8t6.8 10.16q2.48 5.76 2.48 12.32t-2.48 12.32-6.8 10.08-10.16 6.8q-5.76 2.48-12.32 2.48t-12.32-2.48-10.08-6.8-6.8-10.08-2.48-12.32 2.48-12.32q2.48-5.84 6.8-10.16t10.08-6.8 12.32-2.48m1.12 27.68q2.559 0 4.8-.64t3.92-1.76 2.64-2.64.96-3.2-.96-3.2-2.64-2.64-3.92-1.76q-2.241-.64-4.8-.64-2.56 0-4.8.64-2.16.64-3.84 1.76t-2.64 2.64-.96 3.2.96 3.2 2.64 2.64 3.84 1.76q2.24.64 4.8.64m9.04-20.88q0 .88.56 1.52.64.56 1.52.56t1.52-.56a2.08 2.08 0 0 0 .64-1.52 2.08 2.08 0 0 0-.64-1.52 2.08 2.08 0 0 0-1.52-.64q-.88 0-1.52.64-.56.64-.56 1.52m-22.96 21.84q0 .88.56 1.52.64.56 1.52.56t1.52-.56a2.08 2.08 0 0 0 .64-1.52 2.08 2.08 0 0 0-.64-1.52 2.08 2.08 0 0 0-1.52-.64q-.88 0-1.52.64-.56.64-.56 1.52m83.653-28.64q6.56 0 12.32 2.48 5.84 2.48 10.16 6.8t6.8 10.16q2.48 5.76 2.48 12.32t-2.48 12.32-6.8 10.08-10.16 6.8q-5.76 2.48-12.32 2.48-5.679 0-11.04-2l.24 4.16q.16 3.6-1.04 6.8a16.5 16.5 0 0 1-3.36 5.68 17.7 17.7 0 0 1-5.28 4q-3.04 1.52-6.64 1.76-3.6.16-6.8-1.04a16.6 16.6 0 0 1-5.68-3.36 17.7 17.7 0 0 1-4-5.28q-1.52-3.04-1.76-6.64-.159-2.56.48-4.96l12.96-54.96a9.8 9.8 0 0 1 1.52-3.28q1.12-1.44 2.56-2.32a9.2 9.2 0 0 1 3.28-1.28 9.5 9.5 0 0 1 3.68.08q3.28.88 5.12 3.36a31.2 31.2 0 0 1 7.44-3.04 30.7 30.7 0 0 1 8.32-1.12m1.12 27.68q2.56 0 4.8-.64t3.92-1.76 2.64-2.64.96-3.2-.96-3.2-2.64-2.64-3.92-1.76-4.8-.64-4.8.64q-2.16.64-3.84 1.76t-2.64 2.64-.96 3.2.96 3.2 2.64 2.64 3.84 1.76q2.241.64 4.8.64m8.56-21.04q0 .88.56 1.52.64.56 1.52.56t1.52-.56q.64-.64.64-1.52t-.64-1.52a2.07 2.07 0 0 0-1.52-.64q-.88 0-1.52.64-.56.64-.56 1.52m-21.28 22.96q0 .88.56 1.52.64.56 1.52.56t1.52-.56q.64-.64.64-1.52t-.64-1.52a2.07 2.07 0 0 0-1.52-.64q-.88 0-1.52.64-.56.64-.56 1.52m-10.4-22.96q0 .88.56 1.52.64.56 1.52.56t1.52-.56q.64-.64.64-1.52t-.64-1.52a2.07 2.07 0 0 0-1.52-.64q-.88 0-1.52.64-.56.64-.56 1.52m101.615 9.76q0-.08 0 0 .08.08.08 0v.08zl-.24-.24q-.321-.32-.48-.4a1.3 1.3 0 0 0-.32-.24l-.24-.24q-.48-.32-.72-.4a11.5 11.5 0 0 0-2.96-1.36q-3.28-.96-7.04-.72-.24 0-.48.08h-.48l-.96.08q-.24.08-.48.08t-.48.08q-.24 0-.48.08h-.4q-2.16.4-2.64.8t-.08.72q.4.24 1.28.48.879.24 1.44.24 1.12.32 2.24.56l2.24.48 2.24.64q1.12.24 2.32.56l2.24.64q1.2.24 2.48.64 1.2.4 2.4.88 1.28.4 2.64.88 1.28.56 2.64 1.2t2.8 1.52q1.52.88 2.96 2l1.44 1.28q.8.64 1.52 1.44 1.359 1.36 2.64 3.52 1.28 2.08 2 4.16.4 1.12.64 2.16.32 1.04.48 2.16.24 1.12.24 2.08v.56q.08.24.08.48v.8q0 .56-.08.8-.16 2-.56 3.52l-.64 1.76a22 22 0 0 1-.72 1.6 19.3 19.3 0 0 1-1.92 2.88 26 26 0 0 1-2.08 2.16 13.7 13.7 0 0 1-2.08 1.6q-.96.72-1.92 1.28-1.76.96-3.68 1.76-.88.32-1.68.56a9 9 0 0 1-1.6.48q-.8.24-1.6.4-.72.24-1.44.4-1.52.32-2.96.48-1.36.24-2.72.4a46 46 0 0 1-5.36.32q-.64.08-1.36.08h-3.52q-.4 0-.8-.08a595 595 0 0 1-3.12-.32 27 27 0 0 1-2.96-.48 67 67 0 0 1-5.44-1.44 54 54 0 0 1-4.96-1.92q-1.28-.48-2.48-1.04-1.12-.48-2.32-1.12l-1.12-.64-1.12-.64a4 4 0 0 1-.64-.4l-.48-.32-.32-.16-.32-.16-.32-.24-.16-.08-.08-.08-.08-.08a11.9 11.9 0 0 1-3.76-3.12 13 13 0 0 1-2.16-4.08 12.3 12.3 0 0 1-.4-4.64q.16-2.4 1.36-4.64t3.04-3.68q1.92-1.52 4.16-2.16 2.24-.72 4.64-.48 2.4.16 4.64 1.36h.08q.08 0 .08.08h.16l.16.08q.08 0 .24.08l.88.32 1.84.56q.88.4 1.76.72.96.24 1.84.56.879.24 1.68.56l1.76.48q.879.24 1.68.48t1.6.4 1.52.32q.72.08 1.36.16.159 0 .24.08h.72l.48.08q1.599-.32 1.92-.64.4-.32-.08-.64-.48-.4-1.52-.72a15.5 15.5 0 0 0-2.08-.64 17 17 0 0 0-1.92-.48q-.88-.24-.96-.32l-2.08-.8a44 44 0 0 0-2.08-.8l-2.08-.8a98 98 0 0 0-2.16-.8q-.64-.24-1.2-.4-.48-.24-1.12-.48-.64-.32-1.28-.56-.56-.24-1.28-.56l-1.44-.72q-.4-.24-.88-.48a54 54 0 0 0-.96-.56q-.48-.4-1.04-.8-.48-.4-1.12-.96a6 6 0 0 1-.64-.56 32 32 0 0 0-.56-.72 7 7 0 0 0-.56-.8l-.48-.8a27 27 0 0 1-.88-1.76q-.4-.96-.48-1.76a5.3 5.3 0 0 1-.24-1.52.7.7 0 0 0-.08-.32v-2a.7.7 0 0 0 .08-.32q0-.4.16-1.2.08-.64.24-1.2l.32-1.12q.16-.56.4-1.04l.48-1.12q.48-.88 1.12-1.84.32-.48.64-.88l.64-.8q.72-.8 1.44-1.44a19.3 19.3 0 0 1 3.12-2.16q.8-.48 1.52-.8.8-.4 1.52-.72 3.12-1.04 6-1.44a56 56 0 0 1 2.72-.24q1.36-.08 2.72-.08 1.359 0 2.64.08 1.28.08 2.64.24 2.64.4 5.28.96.64.16 1.28.4.72.16 1.36.4l1.28.48q.72.24 1.36.56a37.6 37.6 0 0 1 4.96 2.88q.56.4 1.12.88t1.12 1.04l1.12 1.12q.159.16.24.32t.24.32q.24.24.32.4.08.08.08.16l.08.08.08.08.08.08.08.08q1.119 1.84.72 3.92-.321 2.08-2.16 3.28-1.761 1.2-3.84.8-2.08-.4-3.28-2.16zm-3.28-9.2q0 .88.56 1.52.64.56 1.52.56t1.52-.56a2.08 2.08 0 0 0 .64-1.52 2.08 2.08 0 0 0-.64-1.52 2.08 2.08 0 0 0-1.52-.64q-.88 0-1.52.64-.56.64-.56 1.52m2.96 17.84q0 .88.56 1.52.64.56 1.52.56t1.52-.56a2.08 2.08 0 0 0 .64-1.52 2.08 2.08 0 0 0-.64-1.52 2.08 2.08 0 0 0-1.52-.64q-.88 0-1.52.64-.56.64-.56 1.52"
        fill="#4FAF53" />
</svg>