<svg width="25" height="24" viewBox="0 0 25 24" fill="none" xmlns="http://www.w3.org/2000/svg">
    <mask id="a" style="mask-type:alpha" maskUnits="userSpaceOnUse" x="0" y="0" width="25"
        height="24">
        <path fill="#D9D9D9" d="M.5 0h24v24H.5z" />
    </mask>
    <g mask="url(#a)">
        <path
            d="M15.395 14.28a.75.75 0 0 0-.53-1.28H5.25a.75.75 0 0 1-.75-.75v-.5a.75.75 0 0 1 .75-.75h9.614a.75.75 0 0 0 .53-1.28L11.61 5.935a.75.75 0 0 1 .005-1.065l.355-.349a.75.75 0 0 1 1.056.005l6.944 6.944a.75.75 0 0 1 0 1.06l-6.944 6.944a.75.75 0 0 1-1.056.005l-.355-.349a.75.75 0 0 1-.005-1.065z"
            fill="#131313" />
    </g>
</svg>