<svg width="44" height="44" viewBox="0 0 44 44" fill="none" xmlns="http://www.w3.org/2000/svg">
    <path
        d="M15.263 11.002a10.6 10.6 0 0 1 2.571.264c.71.157 1.384.445 1.987.85a3.9 3.9 0 0 1 1.276 1.576c.322.773.477 1.605.455 2.441a4.7 4.7 0 0 1-.674 2.614 4.96 4.96 0 0 1-2.005 1.716 4.8 4.8 0 0 1 2.703 1.916c.62.996.93 2.153.894 3.326a6.14 6.14 0 0 1-.565 2.71 5.3 5.3 0 0 1-1.55 1.883 6.9 6.9 0 0 1-2.244 1.076 9.5 9.5 0 0 1-2.571.346H6V11.002zm-.55 8.38a3 3 0 0 0 1.896-.577 2.26 2.26 0 0 0 .747-1.884c.02-.41-.062-.817-.237-1.188a1.7 1.7 0 0 0-.66-.711 2.5 2.5 0 0 0-.948-.366 5.3 5.3 0 0 0-1.113-.096h-4.076v4.84h4.39zm.237 8.82c.41.004.82-.04 1.22-.132.367-.08.714-.23 1.022-.442.303-.211.548-.495.712-.826.19-.422.278-.883.255-1.346a2.77 2.77 0 0 0-.857-2.286 3.5 3.5 0 0 0-2.261-.673h-4.72v5.705zm13.675-.076a3.43 3.43 0 0 0 2.535.902 3.34 3.34 0 0 0 2.042-.633 2.6 2.6 0 0 0 1.039-1.32h3.446a6.8 6.8 0 0 1-2.534 3.862 7.05 7.05 0 0 1-4.121 1.172 7.8 7.8 0 0 1-3.046-.576 6.5 6.5 0 0 1-2.297-1.615 7.5 7.5 0 0 1-1.44-2.499 9.4 9.4 0 0 1-.51-3.19 9.2 9.2 0 0 1 .527-3.133 7.06 7.06 0 0 1 6.784-4.805 6.5 6.5 0 0 1 3.168.75 6.6 6.6 0 0 1 2.224 1.98 8.3 8.3 0 0 1 1.258 2.845c.259 1.095.35 2.222.274 3.344H27.708a4.1 4.1 0 0 0 .917 2.916m4.504-7.88a2.84 2.84 0 0 0-2.206-.826 3.1 3.1 0 0 0-1.55.346 3.3 3.3 0 0 0-.984.826c-.24.316-.42.674-.528 1.056q-.148.48-.182.98h6.358a4.3 4.3 0 0 0-.905-2.38zm-6.27-7.86h7.968v2.036h-7.968z"
        fill="#131313" />
</svg>