<svg width="44" height="44" viewBox="0 0 44 44" fill="none" xmlns="http://www.w3.org/2000/svg">
    <path
        d="M22 6C13.16 6 6 13.16 6 22c0 7.08 4.58 13.06 10.94 15.18.8.14 1.099-.34 1.099-.76 0-.38-.02-1.64-.02-2.98-4.019.74-5.058-.98-5.378-1.879-.181-.46-.96-1.881-1.642-2.26-.56-.301-1.36-1.041-.02-1.061 1.261-.02 2.161 1.16 2.462 1.64 1.44 2.421 3.74 1.74 4.66 1.32.138-1.04.559-1.74 1.019-2.14-3.56-.4-7.28-1.78-7.28-7.9 0-1.74.62-3.18 1.64-4.3-.16-.4-.72-2.04.16-4.24 0 0 1.34-.42 4.4 1.64 1.28-.36 2.64-.54 4-.54s2.72.181 4 .54c3.061-2.08 4.4-1.64 4.4-1.64.88 2.2.32 3.84.16 4.24 1.02 1.12 1.64 2.54 1.64 4.3 0 6.14-3.74 7.499-7.3 7.9.58.5 1.08 1.46 1.08 2.96 0 2.14-.02 3.86-.02 4.4 0 .42.3.92 1.1.76C33.42 35.06 38 29.06 38 22c0-8.84-7.16-16-16-16"
        fill="#131313" />
</svg>