<svg width="44" height="44" viewBox="0 0 44 44" fill="none" xmlns="http://www.w3.org/2000/svg">
    <path
        d="M34.75 7H9.25A2.25 2.25 0 0 0 7 9.25v25.5A2.25 2.25 0 0 0 9.25 37h25.5A2.25 2.25 0 0 0 37 34.75V9.25A2.25 2.25 0 0 0 34.75 7M16 32.5h-4.5V19H16zm-2.25-16.125a2.624 2.624 0 1 1 2.7-2.625 2.67 2.67 0 0 1-2.7 2.625M32.5 32.5H28v-7.11c0-2.13-.9-2.895-2.07-2.895a2.61 2.61 0 0 0-2.43 2.79 1 1 0 0 0 0 .21V32.5H19V19h4.35v1.95a4.67 4.67 0 0 1 4.05-2.1c2.325 0 5.04 1.29 5.04 5.49z"
        fill="#131313" />
</svg>