<svg width="33" height="33" viewBox="0 0 33 33" fill="none" xmlns="http://www.w3.org/2000/svg">
    <mask id="a" style="mask-type:alpha" maskUnits="userSpaceOnUse" x="0" y="0" width="33" height="33">
        <path fill="#D9D9D9" d="M.5.5h32v32H.5z" />
    </mask>
    <g mask="url(#a)">
        <path
            d="M16.5 16.5q1.101 0 1.884-.784.783-.783.783-1.883 0-1.099-.783-1.883a2.57 2.57 0 0 0-1.883-.784q-1.101 0-1.884.784a2.57 2.57 0 0 0-.783 1.883q0 1.1.783 1.883.783.784 1.884.784m-1.985 7.891a2.79 2.79 0 0 0 3.972 0q2.596-2.624 4.047-4.874 1.967-3.051 1.967-5.417 0-3.633-2.317-5.95t-5.683-2.317q-3.368 0-5.684 2.317-2.316 2.316-2.316 5.95 0 2.367 1.966 5.417 1.452 2.25 4.048 4.874m3.9 3.754a2.834 2.834 0 0 1-3.83 0q-3.947-3.612-6.101-6.795-2.65-3.917-2.65-7.25 0-5 3.217-7.967t7.45-2.966 7.45 2.966 3.216 7.967q0 3.333-2.65 7.25-2.154 3.183-6.101 6.795"
            fill="#222" />
    </g>
</svg>