<svg width="40" height="40" viewBox="0 0 40 40" fill="none" xmlns="http://www.w3.org/2000/svg">
    <g clip-path="url(#a)">
        <path
            d="M26.667 3.333c0-1.571 0-2.356.488-2.845C27.643 0 28.428 0 30 0h6.667c1.571 0 2.356 0 2.845.488C40 .977 40 1.762 40 3.333v33.334c0 1.571 0 2.356-.488 2.845-.489.488-1.274.488-2.845.488h-8.142c-.908 0-1.362 0-1.74-.21-.38-.212-.617-.598-1.095-1.37l-6.187-10.013c-2.498-4.04-3.747-6.061-4.959-5.716-1.21.342-1.21 2.718-1.21 7.468v6.508c0 1.571 0 2.356-.489 2.845C12.357 40 11.572 40 10 40H3.333c-1.571 0-2.356 0-2.845-.488C0 39.023 0 38.238 0 36.667V3.333C0 1.762 0 .977.488.488.977 0 1.762 0 3.333 0h8.142c.908 0 1.363 0 1.74.21.38.212.617.598 1.095 1.37l6.187 10.013c2.498 4.04 3.747 6.061 4.959 5.716 1.21-.342 1.21-2.718 1.21-7.468z"
            fill="url(#b)" />
    </g>
    <defs>
        <linearGradient id="b" x1="40" y1="0" x2="0" y2="40" gradientUnits="userSpaceOnUse">
            <stop stop-color="#E44857" />
            <stop offset=".5" stop-color="#c040d1" />
            <stop offset="1" stop-color="#7F52FF" />
        </linearGradient>
        <clipPath id="a">
            <path fill="#fff" d="M0 0h40v40H0z" />
        </clipPath>
    </defs>
</svg>