<svg width="32" height="32" viewBox="0 0 32 32" fill="none" xmlns="http://www.w3.org/2000/svg">
    <mask id="a" style="mask-type:alpha" maskUnits="userSpaceOnUse" x="0" y="0" width="32" height="32">
        <path fill="#D9D9D9" d="M0 0h32v32H0z" />
    </mask>
    <g mask="url(#a)">
        <path
            d="M4.75 24a.75.75 0 0 1-.75-.75v-.5a.75.75 0 0 1 .75-.75h22.5a.75.75 0 0 1 .75.75v.5a.75.75 0 0 1-.75.75zm0-7a.75.75 0 0 1-.75-.75v-.5a.75.75 0 0 1 .75-.75h22.5a.75.75 0 0 1 .75.75v.5a.75.75 0 0 1-.75.75zm0-7A.75.75 0 0 1 4 9.25v-.5A.75.75 0 0 1 4.75 8h22.5a.75.75 0 0 1 .75.75v.5a.75.75 0 0 1-.75.75z"
            fill="#131313" />
    </g>
</svg>