<svg width="108" height="108" viewBox="0 0 108 108" fill="none" xmlns="http://www.w3.org/2000/svg">
    <path fill="#F2F2F2" d="M0 0h108v108H0z" />
    <mask id="a" fill="#fff">
        <path d="M8 66a4 4 0 0 1 4-4h12a4 4 0 0 1 4 4v12a4 4 0 0 1-4 4H12a4 4 0 0 1-4-4z" />
    </mask>
    <path
        d="M12 63h12v-2H12zm15 3v12h2V66zm-3 15H12v2h12zM9 78V66H7v12zm3 3a3 3 0 0 1-3-3H7a5 5 0 0 0 5 5zm15-3a3 3 0 0 1-3 3v2a5 5 0 0 0 5-5zm-3-15a3 3 0 0 1 3 3h2a5 5 0 0 0-5-5zm-12-2a5 5 0 0 0-5 5h2a3 3 0 0 1 3-3z"
        fill="#171D1E" mask="url(#a)" />
    <mask id="b" fill="#fff">
        <path d="M32 66a4 4 0 0 1 4-4h12a4 4 0 0 1 4 4v12a4 4 0 0 1-4 4H36a4 4 0 0 1-4-4z" />
    </mask>
    <path
        d="M36 63h12v-2H36zm15 3v12h2V66zm-3 15H36v2h12zm-15-3V66h-2v12zm3 3a3 3 0 0 1-3-3h-2a5 5 0 0 0 5 5zm15-3a3 3 0 0 1-3 3v2a5 5 0 0 0 5-5zm-3-15a3 3 0 0 1 3 3h2a5 5 0 0 0-5-5zm-12-2a5 5 0 0 0-5 5h2a3 3 0 0 1 3-3z"
        fill="#171D1E" mask="url(#b)" />
    <mask id="c" fill="#fff">
        <path d="M56 66a4 4 0 0 1 4-4h12a4 4 0 0 1 4 4v12a4 4 0 0 1-4 4H60a4 4 0 0 1-4-4z" />
    </mask>
    <path
        d="M60 63h12v-2H60zm15 3v12h2V66zm-3 15H60v2h12zm-15-3V66h-2v12zm3 3a3 3 0 0 1-3-3h-2a5 5 0 0 0 5 5zm15-3a3 3 0 0 1-3 3v2a5 5 0 0 0 5-5zm-3-15a3 3 0 0 1 3 3h2a5 5 0 0 0-5-5zm-12-2a5 5 0 0 0-5 5h2a3 3 0 0 1 3-3z"
        fill="#171D1E" mask="url(#c)" />
    <mask id="d" fill="#fff">
        <path d="M80 66a4 4 0 0 1 4-4h12a4 4 0 0 1 4 4v12a4 4 0 0 1-4 4H84a4 4 0 0 1-4-4z" />
    </mask>
    <path
        d="M84 63h12v-2H84zm15 3v12h2V66zm-3 15H84v2h12zm-15-3V66h-2v12zm3 3a3 3 0 0 1-3-3h-2a5 5 0 0 0 5 5zm15-3a3 3 0 0 1-3 3v2a5 5 0 0 0 5-5zm-3-15a3 3 0 0 1 3 3h2a5 5 0 0 0-5-5zm-12-2a5 5 0 0 0-5 5h2a3 3 0 0 1 3-3z"
        fill="#171D1E" mask="url(#d)" />
    <path d="m66 59-1.355-2.549-1.53 2.448zM41.868 44.212l22.091 13.807.266-.423-22.092-13.808z" fill="#171D1E" />
    <path d="m90 59-2.153-1.923-.589 2.826zM17.949 44.245l69.797 14.54.102-.489-69.797-14.54z" fill="#171D1E" />
    <path d="m18 59 2.742.903-.589-2.826zm71.949-15.245L20.152 58.296l.102.49L90.05 44.245z" fill="#171D1E" />
    <path
        d="m42 59 2.885-.101-1.53-2.448zm23.868-15.212L43.776 57.596l.264.424 22.092-13.808zM13.848 41q-.309 0-.476-.154-.154-.168-.154-.476v-8.61q0-.309.154-.462.167-.168.476-.168h2.702q2.394 0 3.696 1.26t1.302 3.668q0 1.204-.336 2.128a4 4 0 0 1-.966 1.54q-.645.63-1.568.952-.925.322-2.128.322zm.518-.98h2.1q.98 0 1.694-.252a3 3 0 0 0 1.204-.742q.49-.49.728-1.232.238-.756.238-1.736 0-1.973-.966-2.954-.966-.994-2.898-.994h-2.1zm24.426 1.078q-.28 0-.434-.154a.68.68 0 0 1-.14-.448v-8.778q0-.294.154-.434.153-.154.434-.154h3.318q1.581 0 2.436.742.855.743.854 2.114 0 .868-.392 1.512-.379.63-1.12.966-.743.322-1.778.322l.14-.182h.28q.546 0 .952.28t.742.896l1.344 2.506q.111.195.098.392a.42.42 0 0 1-.126.308q-.127.112-.364.112a.65.65 0 0 1-.392-.112.9.9 0 0 1-.266-.322l-1.526-2.828q-.322-.602-.742-.798-.42-.21-1.106-.21h-1.792v3.668a.68.68 0 0 1-.14.448q-.14.153-.434.154m.574-5.18h2.59q1.148 0 1.736-.476.588-.49.588-1.456 0-.938-.588-1.414-.588-.49-1.736-.49h-2.59zm25.996 5.208q-1.373 0-2.394-.616-1.008-.63-1.568-1.764-.546-1.134-.546-2.688 0-1.176.308-2.1.322-.938.91-1.582a3.9 3.9 0 0 1 1.414-1.008q.84-.364 1.876-.364 1.4 0 2.408.616 1.022.615 1.568 1.75.56 1.12.56 2.674 0 1.176-.322 2.114a4.6 4.6 0 0 1-.91 1.596q-.588.659-1.428 1.022-.826.35-1.876.35m0-1.022q1.065 0 1.792-.476.743-.476 1.134-1.386.392-.91.392-2.184 0-1.918-.868-2.968-.854-1.065-2.45-1.064-1.035 0-1.778.476-.728.476-1.12 1.386-.392.895-.392 2.17 0 1.904.868 2.982.868 1.064 2.422 1.064m21.02.994a.62.62 0 0 1-.406-.126 1 1 0 0 1-.252-.406l-3.094-8.834q-.097-.294.042-.49.154-.21.476-.21.238 0 .378.126a.85.85 0 0 1 .238.364l2.898 8.498h-.49l2.954-8.456a1 1 0 0 1 .238-.392.5.5 0 0 1 .378-.14q.225 0 .35.14a1 1 0 0 1 .238.392l2.912 8.456h-.434l2.926-8.498a.77.77 0 0 1 .21-.364.6.6 0 0 1 .392-.126q.294 0 .434.196t.028.504l-3.108 8.834q-.098.267-.252.406-.14.126-.406.126a.62.62 0 0 1-.406-.126 1.3 1.3 0 0 1-.252-.406L89.56 32.46h.308l-2.842 8.106a1.1 1.1 0 0 1-.238.406q-.14.126-.406.126"
        fill="#171D1E" />
</svg>