<svg width="108" height="108" viewBox="0 0 108 108" fill="none" xmlns="http://www.w3.org/2000/svg">
    <path fill="#fff" d="M0 0h108v108H0z" />
    <path
        d="M46.869 59.73h-23.43a1.4 1.4 0 0 0-.967.428 1.4 1.4 0 0 0-.396.978v23.352a1.406 1.406 0 0 0 1.41 1.406H46.87a1.41 1.41 0 0 0 1.41-1.406V61.136c0-.373-.149-.73-.413-.994a1.4 1.4 0 0 0-.997-.412m-1.41 20.236a3.117 3.117 0 0 1-3.117 3.117h-14.33a3.117 3.117 0 0 1-3.116-3.117V65.658a3.117 3.117 0 0 1 3.116-3.116h14.329a3.117 3.117 0 0 1 3.116 3.116z"
        fill="#333" />
    <path
        d="M29.297 70.09a3.117 3.117 0 0 1 3.116-3.116h5.482a3.117 3.117 0 0 1 3.116 3.117v5.443a3.117 3.117 0 0 1-3.116 3.116h-5.482a3.117 3.117 0 0 1-3.116-3.116zm18.982-24.022V22.715c0-.373-.149-.73-.413-.994a1.4 1.4 0 0 0-.997-.412h-23.43a1.4 1.4 0 0 0-.967.428 1.4 1.4 0 0 0-.396.978v23.353a1.41 1.41 0 0 0 1.41 1.405H46.87a1.41 1.41 0 0 0 1.41-1.405m-2.82-4.523a3.117 3.117 0 0 1-3.117 3.117h-14.33a3.117 3.117 0 0 1-3.116-3.117V27.237a3.117 3.117 0 0 1 3.116-3.116h14.329a3.117 3.117 0 0 1 3.116 3.116z"
        fill="#333" />
    <path
        d="M29.297 31.67a3.117 3.117 0 0 1 3.116-3.117h5.482a3.117 3.117 0 0 1 3.116 3.117v5.443a3.117 3.117 0 0 1-3.116 3.116h-5.482a3.117 3.117 0 0 1-3.116-3.116zm56.59 52.819V61.136a1.413 1.413 0 0 0-1.41-1.406h-23.43a1.41 1.41 0 0 0-1.364 1.406v23.353c0 .372.149.73.413.993.265.264.624.412.998.412h23.382a1.41 1.41 0 0 0 1.41-1.405m-2.821-4.523a3.117 3.117 0 0 1-3.117 3.117H65.621a3.117 3.117 0 0 1-3.117-3.117V65.658a3.117 3.117 0 0 1 3.117-3.116h14.328a3.117 3.117 0 0 1 3.117 3.116z"
        fill="#333" />
    <path
        d="M66.904 70.09a3.117 3.117 0 0 1 3.117-3.116h5.481a3.117 3.117 0 0 1 3.117 3.117v5.443a3.117 3.117 0 0 1-3.117 3.116h-5.481a3.117 3.117 0 0 1-3.117-3.116zm18.982-24.022V22.715c0-.373-.148-.73-.413-.994a1.4 1.4 0 0 0-.997-.412h-23.43a1.4 1.4 0 0 0-.966.428 1.4 1.4 0 0 0-.397.978v23.353c0 .372.149.73.413.993.265.264.624.412.998.412h23.382a1.41 1.41 0 0 0 1.41-1.405m-2.82-4.523a3.117 3.117 0 0 1-3.117 3.117H65.621a3.117 3.117 0 0 1-3.117-3.117V27.237a3.117 3.117 0 0 1 3.117-3.116h14.328a3.117 3.117 0 0 1 3.117 3.116z"
        fill="#333" />
    <path
        d="M66.904 31.67a3.117 3.117 0 0 1 3.117-3.117h5.481a3.117 3.117 0 0 1 3.117 3.117v5.443a3.117 3.117 0 0 1-3.117 3.116h-5.481a3.117 3.117 0 0 1-3.117-3.116zm.47 20.18a1.403 1.403 0 1 0 0 2.811h16.397c.374 0 .733-.148.997-.412a1.404 1.404 0 0 0-.997-2.4zm-13.426-3.224a1.41 1.41 0 0 0 1.41-1.359v-9.68c0-.373-.148-.73-.412-.994a1.413 1.413 0 0 0-2.408.994v9.68a1.413 1.413 0 0 0 1.41 1.359m-30.509 3.57c-.374 0-.732.148-.997.412a1.403 1.403 0 0 0 .997 2.4h16.397c.374 0 .733-.149.997-.412a1.403 1.403 0 0 0-.997-2.4zm27.05 0h-4.485a1.4 1.4 0 0 0-.997.412 1.403 1.403 0 0 0 .997 2.4h4.484c.374 0 .733-.149.998-.412a1.403 1.403 0 0 0-.998-2.4m3.704 7.769a1.403 1.403 0 0 0-1.41 1.406v16.342c0 .373.148.73.413.994a1.413 1.413 0 0 0 2.407-.994V61.37a1.404 1.404 0 0 0-1.41-1.405m0 20.616a1.4 1.4 0 0 0-.997.412 1.4 1.4 0 0 0-.413.993v3.702c0 .373.148.73.413.994a1.413 1.413 0 0 0 2.407-.994v-3.655a1.4 1.4 0 0 0-.86-1.34 1.4 1.4 0 0 0-.55-.112M92.59 14H77.547a1.4 1.4 0 0 0-.997.412 1.403 1.403 0 0 0 .997 2.4h10.516a3.117 3.117 0 0 1 3.117 3.116v10.471c0 .373.148.73.412.994A1.412 1.412 0 0 0 94 30.4V15.406c0-.373-.149-.73-.413-.994A1.4 1.4 0 0 0 92.59 14M15.41 32.152a1.41 1.41 0 0 0 1.41-1.406V20.275a3.117 3.117 0 0 1 3.117-3.117h10.516c.374 0 .733-.148.997-.412a1.403 1.403 0 0 0-.997-2.4H15.41c-.374 0-.732.149-.997.412a1.4 1.4 0 0 0-.413.994v14.994a1.406 1.406 0 0 0 1.41 1.406m15.043 59.037H19.937a3.117 3.117 0 0 1-3.117-3.117V77.601c0-.373-.148-.73-.413-.994A1.413 1.413 0 0 0 14 77.6v14.993a1.406 1.406 0 0 0 1.41 1.406h15.043c.374 0 .733-.148.997-.412a1.403 1.403 0 0 0-.997-2.4m62.052-14.994a1.4 1.4 0 0 0-.997.412 1.4 1.4 0 0 0-.413.994V88.07a3.117 3.117 0 0 1-3.117 3.117H77.462a1.403 1.403 0 1 0 0 2.811h15.043a1.41 1.41 0 0 0 1.41-1.406V77.601c0-.373-.148-.73-.413-.994a1.4 1.4 0 0 0-.997-.412"
        fill="#333" />
</svg>