<svg width="72" height="72" viewBox="0 0 72 72" fill="none" xmlns="http://www.w3.org/2000/svg">
    <rect width="72" height="72" rx="4" fill="#0E1415" />
    <g clip-path="url(#a)">
        <mask id="b" style="mask-type:luminance" maskUnits="userSpaceOnUse" x="12" y="26" width="48"
            height="20">
            <path d="M12 26h48v19.525H12z" fill="#fff" />
        </mask>
        <g mask="url(#b)" fill="#BCF0B4">
            <path
                d="M27.844 39.326c-.2 0-.449-.04-.659-.04-.268-.041-.57-.08-.818-.12-.08-.05-.12-.09-.2-.09-.1-.49-.509-.78-1.068-.7-1.028.21-2.276.37-3.174.95-1.04.618-1.987 1.357-3.025 1.946-2.267 1.229-4.623 2.307-6.81 3.674-.198.12-.039.41.181.32 4.252-1.937 9.104-2.517 13.067-4.952.84.22 2.067-.17 2.627-.58.178-.12.139-.408-.12-.408" />
            <path
                d="M54.349 37.259c-.739-.45-1.447-.898-1.987-1.607-.41-.53-1.118-3.794-1.817-4.084s-1.407 1.079-2.636 1.369c-.059 0-.059-.05-.099-.09-.07-.12-.15-.28-.33-.37-.079-.04-.119-.08-.198-.12-.171-.16-.29-.379-.4-.54-.18-.827-2.066-4.96-2.367-5.78-.16-.498-6.179 4.124-7.716 5.082-1.188.7-2.186 1.767-3.045 2.835-1.108 1.288-2.596 2.356-3.953 3.345-.41.3-.08.829.369.629 1.367-.7 2.965-.999 4.442-1.527.08-.041.18-.08.3-.13a8 8 0 0 1-1.158.738c-3.953 2.286-6.728 5.95-10.842 7.977-.29.12-.1.618.23.529 2.326-.748 4.632-1.358 6.947-2.146 2.187-.739 3.785-2.606 5.482-4.074.699-.659 1.328-1.248 1.887-2.026.37-.45.37-.998.918-1.358.41-.33.919-.459 1.288-.828.679-.72.938-1.607 1.557-2.356.7-.87 1.309-1.897 1.967-2.806.1-.13.14-.24.14-.369.08-.09.16-.21.229-.29-.16.5-.12 1.039-.41 1.568a8.6 8.6 0 0 0-.617 1.896c-.2.819-.49 1.698-.7 2.516h-.04c-.739 1.029-1.717 2.097-2.086 3.345-.55 1.647-.958 2.766-2.316 4.002-.26.2.07.57.33.41 1.147-.829 2.255-2.026 3.543-2.645 1.078-.53 2.676-1.897 3.254-2.975.26-.41.34-.819.41-1.188.06-.08.14-.17.18-.24.49-.37.998-.7 1.407-1.108 0 .08.04.12.08.2-.22.32-.419.648-.489.938-.18.659-.22 1.358-.41 2.026-.209.62-.549 1.199-.659 1.867-.099.619.74 1.039 1.07.41.638-1.368 1.377-2.476 2.824-3.095.37-.179.739-.33 1.038-.55.21.29.36.58.58.839-.41 1.518-.7 3.095-.919 4.653-.04.09 0 .13.08.18-.53.938-1.058 1.887-1.229 2.954 0 .13 3.924-4.173 4.463-4.951v.25c-.08.249-.169.528-.12.858 0 .04-.508 1.198-.588 1.827v.17a9.6 9.6 0 0 0-.36 1.716v.22c-.04.28 4.403-1.986 4.892-1.827.33.09 2.356 1.318 3.105 1.318.42 0-4.003-6.669-5.521-7.587" />
        </g>
    </g>
    <defs>
        <clipPath id="a">
            <path fill="#fff" d="M12 26h48v19.525H12z" />
        </clipPath>
    </defs>
</svg>