<svg width="72" height="72" viewBox="0 0 72 72" fill="none" xmlns="http://www.w3.org/2000/svg">
    <path d="M0 4a4 4 0 0 1 4-4h64a4 4 0 0 1 4 4v64a4 4 0 0 1-4 4H4a4 4 0 0 1-4-4z" fill="#F8F8F8"/>
    <g clip-path="url(#a)">
        <path d="M42.667 19.333c0-1.571 0-2.356.488-2.845C43.643 16 44.428 16 46 16h6.667c1.571 0 2.356 0 2.845.488.488.489.488 1.274.488 2.845v33.334c0 1.571 0 2.356-.488 2.845-.489.488-1.274.488-2.845.488h-8.142c-.908 0-1.362 0-1.74-.21-.38-.212-.617-.598-1.095-1.37l-6.187-10.013c-2.498-4.04-3.747-6.061-4.959-5.716-1.21.342-1.21 2.718-1.21 7.468v6.508c0 1.571 0 2.356-.489 2.845C28.357 56 27.572 56 26 56h-6.667c-1.571 0-2.356 0-2.845-.488C16 55.023 16 54.238 16 52.667V19.333c0-1.571 0-2.356.488-2.845C16.977 16 17.762 16 19.333 16h8.142c.908 0 1.362 0 1.74.21.38.212.617.598 1.095 1.37l6.188 10.013c2.497 4.04 3.746 6.061 4.958 5.716 1.21-.342 1.21-2.718 1.21-7.468z" fill="url(#b)"/>
    </g>
    <defs>
        <linearGradient id="b" x1="56" y1="16" x2="16" y2="56" gradientUnits="userSpaceOnUse">
            <stop stop-color="#E44857"/>
            <stop offset=".5" stop-color="#C711E1"/>
            <stop offset="1" stop-color="#7F52FF"/>
        </linearGradient>
        <clipPath id="a">
            <path fill="#fff" d="M16 16h40v40H16z"/>
        </clipPath>
    </defs>
</svg>
