<svg width="25" height="24" viewBox="0 0 25 24" fill="none" xmlns="http://www.w3.org/2000/svg">
    <mask id="a" style="mask-type:alpha" maskUnits="userSpaceOnUse" x="0" y="0" width="25" height="24">
        <path fill="#D9D9D9" d="M.834 0h24v24h-24z" />
    </mask>
    <g mask="url(#a)">
        <path
            d="M8.817 17.133a.7.7 0 0 0 .7.7h6.634a.7.7 0 0 0 .7-.7v-.266a.7.7 0 0 0-.7-.7H9.517a.7.7 0 0 0-.7.7zm0-4.166a.7.7 0 0 0 .7.7h6.634a.7.7 0 0 0 .7-.7V12.7a.7.7 0 0 0-.7-.7H9.517a.7.7 0 0 0-.7.7zM6.501 22q-.675 0-1.171-.496a1.6 1.6 0 0 1-.496-1.17V3.666q0-.675.496-1.171Q5.825 2 6.5 2h8.394a.7.7 0 0 1 .495.205l5.24 5.24a.7.7 0 0 1 .205.495v12.393q0 .675-.496 1.171-.495.495-1.17.496zm8.55-13.567a.7.7 0 0 1-.7-.7V4.367a.7.7 0 0 0-.7-.7H6.5v15.966a.7.7 0 0 0 .7.7h11.266a.7.7 0 0 0 .7-.7v-10.5a.7.7 0 0 0-.7-.7z"
            fill="#222" />
    </g>
</svg>