<svg width="41" height="40" viewBox="0 0 41 40" fill="none" xmlns="http://www.w3.org/2000/svg">
    <path fill-rule="evenodd" clip-rule="evenodd"
        d="M36.5 20c0 8.837-7.163 16-16 16s-16-7.163-16-16 7.163-16 16-16 16 7.163 16 16m-9.567-7.906c.818-.36 1.694.367 1.552 1.288l-2.108 13.62c-.13.828-1.01 1.259-1.695.829L18.573 24c-.636-.4-.742-1.324-.212-1.87l5.456-5.625c.195-.2-.054-.527-.283-.369l-7.58 5.237a2.17 2.17 0 0 1-1.896.289l-3.363-1.071c-.608-.194-.651-1.083-.064-1.34z"
        fill="#131313" />
</svg>