<svg width="41" height="40" viewBox="0 0 41 40" fill="none" xmlns="http://www.w3.org/2000/svg">
    <path fill-rule="evenodd" clip-rule="evenodd"
        d="M7.252 27.745 4.5 36l8.96-2.358a15.7 15.7 0 0 0 7.316 1.806c8.684 0 15.724-7.04 15.724-15.724S29.46 4 20.776 4 5.052 11.04 5.052 19.724a15.64 15.64 0 0 0 2.2 8.02m20.152-5.729s2.678 1.57 3.404 2.941a1.51 1.51 0 0 1-.265 1.768l-.97.97c-3.077 3.077-6.551 1.562-9.628-1.515l-5.624-5.624c-3.077-3.077-4.592-6.551-1.515-9.628l.97-.97a1.51 1.51 0 0 1 1.767-.266c1.372.726 2.941 3.404 2.941 3.404.345.606.384 1.336-.232 1.682 0 0-1.043.87-1.193 1.091-.685 1.011-.658 1.947.287 2.892l4.393 4.393c.945.945 1.881.972 2.892.287.221-.15 1.091-1.193 1.091-1.193.345-.616 1.076-.577 1.682-.232"
        fill="#131313" />
</svg>