<svg width="310" height="300" viewBox="0 0 310 300" fill="none" xmlns="http://www.w3.org/2000/svg">
<path d="M64.93 0C69.0632 0 72.9588 0.864605 76.6169 2.59381C80.2751 4.32302 83.4581 6.68316 86.166 9.67423C88.874 12.6653 91.0118 16.1704 92.5796 20.1897C94.1474 24.2089 94.9312 28.5086 94.9312 33.0887C94.9312 37.6687 94.1474 41.9684 92.5796 45.9876C91.0118 49.9601 88.874 53.4419 86.166 56.433C83.4581 59.4241 80.2751 61.7842 76.6169 63.5134C72.9588 65.2426 69.0632 66.1072 64.93 66.1072C60.7968 66.1072 56.9012 65.2426 53.243 63.5134C49.6324 61.7842 46.4732 59.4241 43.7652 56.433C41.0573 53.4419 38.9194 49.9601 37.3516 45.9876C35.7839 41.9684 35 37.6687 35 33.0887C35 28.5086 35.7839 24.2089 37.3516 20.1897C38.9194 16.1704 41.0573 12.6653 43.7652 9.67423C46.4732 6.68316 49.6324 4.32302 53.243 2.59381C56.9012 0.864605 60.7968 0 64.93 0ZM65.6426 30.1443C67.2579 30.1443 68.7544 29.8405 70.1321 29.233C71.5574 28.6254 72.7926 27.8076 73.8377 26.7794C74.8829 25.7512 75.7143 24.5595 76.3319 23.2041C76.9495 21.8021 77.2583 20.3065 77.2583 18.7175C77.2583 17.1285 76.9495 15.6564 76.3319 14.301C75.7143 12.899 74.8829 11.6838 73.8377 10.6557C72.7926 9.62749 71.5574 8.80962 70.1321 8.20206C68.7544 7.5945 67.2579 7.29072 65.6426 7.29072C64.0273 7.29072 62.5071 7.5945 61.0819 8.20206C59.7041 8.80962 58.4927 9.62749 57.4475 10.6557C56.4023 11.6838 55.5709 12.899 54.9533 14.301C54.3357 15.6564 54.0269 17.1285 54.0269 18.7175C54.0269 20.3065 54.3357 21.8021 54.9533 23.2041C55.5709 24.5595 56.4023 25.7512 57.4475 26.7794C58.4927 27.8076 59.7041 28.6254 61.0819 29.233C62.5071 29.8405 64.0273 30.1443 65.6426 30.1443ZM74.3366 5.60825C74.3366 6.12233 74.5028 6.56632 74.8354 6.9402C75.2155 7.26735 75.6668 7.43093 76.1894 7.43093C76.712 7.43093 77.1633 7.26735 77.5434 6.9402C77.9234 6.56632 78.1134 6.12233 78.1134 5.60825C78.1134 5.09416 77.9234 4.65017 77.5434 4.27629C77.1633 3.9024 76.712 3.71546 76.1894 3.71546C75.6668 3.71546 75.2155 3.9024 74.8354 4.27629C74.5028 4.65017 74.3366 5.09416 74.3366 5.60825ZM53.5281 29.0928C53.5281 29.6069 53.6944 30.0509 54.0269 30.4247C54.407 30.7519 54.8583 30.9155 55.3809 30.9155C55.9035 30.9155 56.3548 30.7519 56.7349 30.4247C57.1149 30.0509 57.305 29.6069 57.305 29.0928C57.305 28.5787 57.1149 28.1347 56.7349 27.7608C56.3548 27.3869 55.9035 27.2 55.3809 27.2C54.8583 27.2 54.407 27.3869 54.0269 27.7608C53.6944 28.1347 53.5281 28.5787 53.5281 29.0928Z" fill="#4FAF53"/>
<path d="M122.724 10.5155C126.62 10.5155 130.278 11.2399 133.698 12.6887C137.166 14.1375 140.183 16.1237 142.749 18.6474C145.314 21.1711 147.333 24.1388 148.806 27.5505C150.279 30.9155 151.015 34.5141 151.015 38.3464C151.015 42.1787 150.279 45.7773 148.806 49.1423C147.333 52.5072 145.314 55.4515 142.749 57.9753C140.183 60.499 137.166 62.4852 133.698 63.934C130.278 65.3828 126.62 66.1072 122.724 66.1072C118.828 66.1072 115.17 65.3828 111.75 63.934C108.329 62.4852 105.336 60.499 102.771 57.9753C100.205 55.4515 98.1861 52.5072 96.7133 49.1423C95.2406 45.7773 94.5042 42.1787 94.5042 38.3464C94.5042 34.5141 95.2406 30.9155 96.7133 27.5505C98.1861 24.1388 100.205 21.1711 102.771 18.6474C105.336 16.1237 108.329 14.1375 111.75 12.6887C115.17 11.2399 118.828 10.5155 122.724 10.5155ZM123.722 34.7711C125.242 34.7711 126.667 34.5842 127.997 34.2103C129.328 33.8364 130.491 33.3223 131.489 32.668C132.487 32.0137 133.271 31.2426 133.841 30.3546C134.411 29.4667 134.696 28.532 134.696 27.5505C134.696 26.5691 134.411 25.6344 133.841 24.7464C133.271 23.8584 132.487 23.0873 131.489 22.433C130.491 21.7787 129.328 21.2646 127.997 20.8907C126.667 20.5168 125.242 20.3299 123.722 20.3299C122.201 20.3299 120.776 20.5168 119.446 20.8907C118.163 21.2646 117.023 21.7787 116.025 22.433C115.028 23.0873 114.244 23.8584 113.674 24.7464C113.104 25.6344 112.819 26.5691 112.819 27.5505C112.819 28.532 113.104 29.4667 113.674 30.3546C114.244 31.2426 115.028 32.0137 116.025 32.668C117.023 33.3223 118.163 33.8364 119.446 34.2103C120.776 34.5842 122.201 34.7711 123.722 34.7711ZM131.774 16.4742C131.774 16.9883 131.94 17.4323 132.273 17.8062C132.653 18.1333 133.104 18.2969 133.627 18.2969C134.15 18.2969 134.601 18.1333 134.981 17.8062C135.361 17.4323 135.551 16.9883 135.551 16.4742C135.551 15.9601 135.361 15.5161 134.981 15.1423C134.601 14.7684 134.15 14.5814 133.627 14.5814C133.104 14.5814 132.653 14.7684 132.273 15.1423C131.94 15.5161 131.774 15.9601 131.774 16.4742ZM111.322 35.6124C111.322 36.1265 111.488 36.5704 111.821 36.9443C112.201 37.2715 112.652 37.4351 113.175 37.4351C113.697 37.4351 114.149 37.2715 114.529 36.9443C114.909 36.5704 115.099 36.1265 115.099 35.6124C115.099 35.0983 114.909 34.6543 114.529 34.2804C114.149 33.9065 113.697 33.7196 113.175 33.7196C112.652 33.7196 112.201 33.9065 111.821 34.2804C111.488 34.6543 111.322 35.0983 111.322 35.6124Z" fill="#4FAF53"/>
<path d="M185.839 10.5155C189.734 10.5155 193.392 11.2399 196.813 12.6887C200.281 14.1375 203.298 16.1237 205.863 18.6474C208.429 21.1711 210.448 24.1388 211.92 27.5505C213.393 30.9155 214.13 34.5141 214.13 38.3464C214.13 42.1787 213.393 45.7773 211.92 49.1423C210.448 52.5072 208.429 55.4515 205.863 57.9753C203.298 60.499 200.281 62.4852 196.813 63.934C193.392 65.3828 189.734 66.1072 185.839 66.1072C182.466 66.1072 179.187 65.523 176.004 64.3546L176.218 68C176.313 70.1031 176.004 72.0893 175.292 73.9588C174.627 75.8282 173.629 77.4873 172.299 78.9361C170.969 80.3849 169.401 81.5533 167.596 82.4412C165.79 83.3292 163.819 83.8433 161.681 83.9835C159.543 84.077 157.524 83.7732 155.624 83.0722C153.723 82.4179 152.037 81.4364 150.564 80.1278C149.091 78.8192 147.904 77.277 147.001 75.501C146.098 73.7251 145.576 71.7856 145.433 69.6825C145.338 68.1869 145.481 66.7381 145.861 65.3361L157.405 17.1753C157.69 16.1003 158.141 15.1423 158.759 14.301C159.424 13.4598 160.184 12.7821 161.039 12.268C161.942 11.7072 162.916 11.3333 163.961 11.1464C165.054 10.9594 166.147 10.9828 167.239 11.2165C169.187 11.7306 170.707 12.712 171.8 14.1608C173.89 12.9924 176.099 12.1045 178.427 11.4969C180.803 10.8426 183.273 10.5155 185.839 10.5155ZM186.836 34.7711C188.357 34.7711 189.782 34.5842 191.112 34.2103C192.442 33.8364 193.606 33.3223 194.604 32.668C195.601 32.0137 196.385 31.2426 196.955 30.3546C197.526 29.4667 197.811 28.532 197.811 27.5505C197.811 26.5691 197.526 25.6344 196.955 24.7464C196.385 23.8584 195.601 23.0873 194.604 22.433C193.606 21.7787 192.442 21.2646 191.112 20.8907C189.782 20.5168 188.357 20.3299 186.836 20.3299C185.316 20.3299 183.891 20.5168 182.561 20.8907C181.278 21.2646 180.138 21.7787 179.14 22.433C178.142 23.0873 177.358 23.8584 176.788 24.7464C176.218 25.6344 175.933 26.5691 175.933 27.5505C175.933 28.532 176.218 29.4667 176.788 30.3546C177.358 31.2426 178.142 32.0137 179.14 32.668C180.138 33.3223 181.278 33.8364 182.561 34.2103C183.891 34.5842 185.316 34.7711 186.836 34.7711ZM194.461 16.334C194.461 16.8481 194.628 17.2921 194.96 17.666C195.34 17.9931 195.792 18.1567 196.314 18.1567C196.837 18.1567 197.288 17.9931 197.668 17.666C198.048 17.2921 198.238 16.8481 198.238 16.334C198.238 15.8199 198.048 15.3759 197.668 15.0021C197.288 14.6282 196.837 14.4412 196.314 14.4412C195.792 14.4412 195.34 14.6282 194.96 15.0021C194.628 15.3759 194.461 15.8199 194.461 16.334ZM175.506 36.4536C175.506 36.9677 175.672 37.4117 176.004 37.7856C176.385 38.1127 176.836 38.2763 177.358 38.2763C177.881 38.2763 178.332 38.1127 178.712 37.7856C179.092 37.4117 179.282 36.9677 179.282 36.4536C179.282 35.9395 179.092 35.4955 178.712 35.1217C178.332 34.7478 177.881 34.5608 177.358 34.5608C176.836 34.5608 176.385 34.7478 176.004 35.1217C175.672 35.4955 175.506 35.9395 175.506 36.4536ZM166.242 16.334C166.242 16.8481 166.408 17.2921 166.74 17.666C167.12 17.9931 167.572 18.1567 168.094 18.1567C168.617 18.1567 169.068 17.9931 169.448 17.666C169.828 17.2921 170.018 16.8481 170.018 16.334C170.018 15.8199 169.828 15.3759 169.448 15.0021C169.068 14.6282 168.617 14.4412 168.094 14.4412C167.572 14.4412 167.12 14.6282 166.74 15.0021C166.408 15.3759 166.242 15.8199 166.242 16.334Z" fill="#4FAF53"/>
<path d="M256.757 24.8866C256.757 24.8399 256.757 24.8399 256.757 24.8866C256.804 24.9333 256.828 24.9333 256.828 24.8866V24.9567L256.757 24.8866L256.543 24.6763C256.353 24.4893 256.211 24.3725 256.116 24.3258C256.021 24.2323 255.926 24.1622 255.831 24.1155C255.783 24.0687 255.712 23.9986 255.617 23.9052C255.332 23.7182 255.118 23.6014 254.975 23.5546C254.168 23.0405 253.289 22.6433 252.339 22.3629C250.391 21.8021 248.301 21.5918 246.068 21.732C245.925 21.732 245.783 21.7553 245.64 21.8021C245.498 21.8021 245.355 21.8021 245.213 21.8021L244.357 21.8722C244.215 21.9189 244.072 21.9423 243.93 21.9423C243.787 21.9423 243.645 21.9656 243.502 22.0124C243.36 22.0124 243.217 22.0357 243.075 22.0825C242.98 22.0825 242.861 22.0825 242.718 22.0825C241.436 22.3161 240.652 22.5498 240.367 22.7835C240.082 23.0172 240.058 23.2275 240.295 23.4144C240.533 23.5546 240.913 23.6948 241.436 23.8351C241.958 23.9753 242.386 24.0454 242.718 24.0454C243.383 24.2323 244.049 24.3959 244.714 24.5361C245.379 24.6763 246.044 24.8165 246.709 24.9567C247.374 25.1436 248.039 25.3306 248.704 25.5175C249.369 25.6577 250.058 25.8213 250.771 26.0082C251.436 26.1952 252.101 26.3821 252.766 26.5691C253.479 26.7093 254.215 26.8962 254.975 27.1299C255.688 27.3636 256.401 27.6206 257.113 27.901C257.873 28.1347 258.657 28.3918 259.465 28.6722C260.225 28.9993 261.009 29.3498 261.817 29.7237C262.624 30.0976 263.456 30.5416 264.311 31.0557C265.213 31.5698 266.092 32.1539 266.947 32.8082C267.375 33.1821 267.803 33.556 268.23 33.9299C268.705 34.3038 269.157 34.7244 269.584 35.1917C270.392 35.9862 271.176 37.0144 271.936 38.2763C272.696 39.4914 273.29 40.7065 273.717 41.9216C273.955 42.5759 274.145 43.2069 274.287 43.8144C274.477 44.422 274.62 45.0529 274.715 45.7072C274.857 46.3615 274.929 46.9691 274.929 47.5299C274.929 47.7168 274.929 47.8804 274.929 48.0206C274.976 48.1608 275 48.301 275 48.4412V49.1423C275 49.4694 274.976 49.7031 274.929 49.8433C274.834 51.0117 274.667 52.0399 274.43 52.9278C274.24 53.4419 274.05 53.956 273.86 54.4701C273.67 54.9375 273.456 55.4048 273.218 55.8722C272.696 56.8069 272.126 57.6481 271.508 58.3959C270.986 59.0034 270.368 59.6344 269.655 60.2887C269.038 60.8495 268.42 61.3168 267.803 61.6907C267.232 62.1113 266.662 62.4852 266.092 62.8124C265.047 63.3732 263.954 63.8873 262.814 64.3546C262.292 64.5416 261.793 64.7052 261.318 64.8454C260.843 65.0323 260.368 65.1725 259.893 65.266C259.417 65.4062 258.942 65.523 258.467 65.6165C258.04 65.7567 257.612 65.8735 257.185 65.967C256.282 66.154 255.403 66.2942 254.548 66.3876C253.74 66.5278 252.933 66.6447 252.125 66.7381C251.317 66.8316 250.51 66.9017 249.702 66.9485C248.942 66.9952 248.158 67.0186 247.35 67.0186C246.97 67.0653 246.567 67.0887 246.139 67.0887C245.759 67.0887 245.379 67.0887 244.999 67.0887H243.787C243.55 67.0887 243.288 67.0887 243.003 67.0887C242.766 67.0887 242.528 67.0653 242.291 67.0186C241.341 66.9251 240.414 66.8316 239.512 66.7381C238.609 66.6447 237.73 66.5045 236.875 66.3175C235.165 65.9436 233.549 65.523 232.029 65.0557C230.461 64.5416 228.989 63.9808 227.611 63.3732C226.851 63.0928 226.114 62.789 225.402 62.4619C224.737 62.1814 224.048 61.8543 223.335 61.4804C223.003 61.2935 222.67 61.1065 222.337 60.9196C222.005 60.7326 221.672 60.5457 221.34 60.3588C221.15 60.2653 220.96 60.1484 220.77 60.0082C220.627 59.9148 220.485 59.8213 220.342 59.7278C220.247 59.6811 220.152 59.6344 220.057 59.5876C219.962 59.5409 219.867 59.4942 219.772 59.4474L219.487 59.2371L219.344 59.167L219.202 59.0268C217.872 58.3258 216.755 57.4144 215.853 56.2928C214.998 55.2179 214.356 54.0261 213.929 52.7175C213.549 51.4089 213.43 50.0536 213.572 48.6515C213.667 47.2495 214.071 45.8942 214.784 44.5856C215.496 43.277 216.399 42.2021 217.492 41.3608C218.632 40.4729 219.867 39.8419 221.197 39.468C222.528 39.0474 223.905 38.9072 225.33 39.0474C226.756 39.1409 228.133 39.5381 229.464 40.2392H229.535C229.582 40.2392 229.606 40.2625 229.606 40.3093C229.654 40.3093 229.701 40.3093 229.749 40.3093C229.844 40.356 229.891 40.3794 229.891 40.3794C229.939 40.3794 230.01 40.4027 230.105 40.4495L230.889 40.7299L232.528 41.2206C233.051 41.4543 233.573 41.6646 234.096 41.8515C234.666 41.9917 235.212 42.1553 235.735 42.3423C236.257 42.4825 236.756 42.646 237.231 42.833C237.754 42.9732 238.276 43.1134 238.799 43.2536C239.322 43.3938 239.82 43.534 240.295 43.6742C240.771 43.8144 241.246 43.9313 241.721 44.0247C242.196 44.1182 242.647 44.2117 243.075 44.3052C243.502 44.3519 243.906 44.3986 244.286 44.4454C244.381 44.4454 244.452 44.4687 244.5 44.5155C244.595 44.5155 244.69 44.5155 244.785 44.5155H245.141L245.569 44.5856C246.519 44.3986 247.089 44.2117 247.279 44.0247C247.517 43.8378 247.493 43.6509 247.208 43.4639C246.923 43.2302 246.472 43.0199 245.854 42.833C245.236 42.5993 244.619 42.4124 244.001 42.2722C243.383 42.0852 242.813 41.945 242.291 41.8515C241.768 41.7113 241.483 41.6179 241.436 41.5711C240.818 41.3375 240.2 41.1038 239.583 40.8701C239.013 40.6364 238.395 40.4027 237.73 40.1691C237.112 39.9354 236.495 39.7017 235.877 39.468C235.26 39.2344 234.618 39.0007 233.953 38.767C233.573 38.6268 233.217 38.51 232.884 38.4165C232.599 38.2763 232.267 38.1361 231.887 37.9959C231.507 37.8089 231.126 37.6454 230.746 37.5051C230.414 37.3649 230.034 37.2014 229.606 37.0144L228.323 36.3835C228.086 36.2433 227.825 36.1031 227.54 35.9629C227.302 35.8227 227.017 35.6591 226.684 35.4722C226.399 35.2385 226.091 35.0048 225.758 34.7711C225.473 34.5375 225.14 34.257 224.76 33.9299C224.57 33.7897 224.38 33.6261 224.19 33.4392C224.048 33.2522 223.881 33.0419 223.691 32.8082C223.549 32.5746 223.383 32.3409 223.193 32.1072C223.05 31.8735 222.908 31.6399 222.765 31.4062C222.48 30.8921 222.219 30.378 221.981 29.8639C221.744 29.3031 221.601 28.789 221.554 28.3216C221.411 27.8543 221.34 27.4103 221.34 26.9897C221.34 26.8962 221.316 26.8027 221.269 26.7093C221.269 26.5691 221.269 26.4522 221.269 26.3588V25.2371C221.269 25.1436 221.269 25.0502 221.269 24.9567C221.316 24.8632 221.34 24.7698 221.34 24.6763C221.34 24.4426 221.387 24.0921 221.482 23.6247C221.53 23.2509 221.601 22.9003 221.696 22.5732C221.791 22.246 221.886 21.9189 221.981 21.5918C222.076 21.2646 222.195 20.9608 222.337 20.6804C222.48 20.3533 222.623 20.0261 222.765 19.699C223.05 19.1849 223.383 18.6474 223.763 18.0866C223.953 17.8062 224.143 17.5491 224.333 17.3155C224.523 17.0818 224.713 16.8481 224.903 16.6144C225.33 16.1471 225.758 15.7265 226.186 15.3526C227.088 14.6048 228.015 13.9739 228.965 13.4598C229.44 13.1794 229.891 12.9457 230.319 12.7588C230.794 12.5251 231.245 12.3148 231.673 12.1278C233.526 11.5203 235.307 11.0997 237.017 10.866C237.873 10.7725 238.68 10.7024 239.44 10.6557C240.248 10.6089 241.056 10.5856 241.863 10.5856C242.671 10.5856 243.455 10.6089 244.215 10.6557C244.975 10.7024 245.759 10.7725 246.567 10.866C248.134 11.0997 249.702 11.3801 251.27 11.7072C251.65 11.8007 252.03 11.9175 252.41 12.0577C252.838 12.1512 253.241 12.268 253.621 12.4082C254.002 12.5485 254.382 12.6887 254.762 12.8289C255.189 12.9691 255.593 13.1326 255.973 13.3196C257.541 14.0674 259.014 14.9086 260.391 15.8433C260.724 16.077 261.056 16.334 261.389 16.6144C261.722 16.8948 262.054 17.1986 262.387 17.5258L263.384 18.5072C263.479 18.6007 263.551 18.6942 263.598 18.7876C263.646 18.8811 263.717 18.9746 263.812 19.068C263.954 19.2082 264.049 19.3251 264.097 19.4186C264.144 19.4653 264.168 19.512 264.168 19.5588C264.168 19.5588 264.192 19.5821 264.239 19.6289L264.453 19.8392C265.118 20.9141 265.332 22.0591 265.095 23.2742C264.905 24.4893 264.263 25.4474 263.171 26.1485C262.125 26.8495 260.985 27.0832 259.75 26.8495C258.515 26.6158 257.541 25.9849 256.828 24.9567L256.757 24.8866ZM253.835 16.8247C253.835 17.3388 254.002 17.7828 254.334 18.1567C254.714 18.4838 255.165 18.6474 255.688 18.6474C256.211 18.6474 256.662 18.4838 257.042 18.1567C257.422 17.7828 257.612 17.3388 257.612 16.8247C257.612 16.3106 257.422 15.8667 257.042 15.4928C256.662 15.1189 256.211 14.932 255.688 14.932C255.165 14.932 254.714 15.1189 254.334 15.4928C254.002 15.8667 253.835 16.3106 253.835 16.8247ZM256.472 32.4577C256.472 32.9718 256.638 33.4158 256.971 33.7897C257.351 34.1168 257.802 34.2804 258.325 34.2804C258.847 34.2804 259.299 34.1168 259.679 33.7897C260.059 33.4158 260.249 32.9718 260.249 32.4577C260.249 31.9436 260.059 31.4997 259.679 31.1258C259.299 30.7519 258.847 30.5649 258.325 30.5649C257.802 30.5649 257.351 30.7519 256.971 31.1258C256.638 31.4997 256.472 31.9436 256.472 32.4577Z" fill="#4FAF53"/>
<g clip-path="url(#clip0_54957_284)">
<mask id="mask0_54957_284" style="mask-type:alpha" maskUnits="userSpaceOnUse" x="0" y="116" width="310" height="185">
<path d="M309.297 279.528C304.528 259.984 296.072 241.532 284.384 225.165C276.978 214.762 268.346 205.292 258.674 196.958C252.475 191.607 245.873 186.742 238.926 182.407L239.098 182.087L248.665 165.571L258.024 149.423L264.734 137.831C266.465 134.509 266.85 130.647 265.808 127.049C264.766 123.45 262.378 120.393 259.14 118.513C255.903 116.633 252.066 116.076 248.429 116.957C244.792 117.838 241.634 120.089 239.613 123.243L232.903 134.835L223.544 150.97L213.976 167.499L212.922 169.316L211.474 168.739C193.399 161.854 174.217 158.338 154.878 158.363H153.246C134.044 158.544 115.034 162.214 97.1408 169.194L96.1595 167.511L86.5919 150.983L77.245 134.835L70.5231 123.243C69.0834 120.756 66.9391 118.752 64.3617 117.486C61.7842 116.22 58.8894 115.747 56.0437 116.128C53.1979 116.51 50.5291 117.727 48.3749 119.628C46.2208 121.528 44.6781 124.025 43.9422 126.804C42.9559 130.53 43.4852 134.495 45.4142 137.831L52.1238 149.435L61.4829 165.571L71.0506 182.1L71.1364 182.235C46.8661 197.323 27.084 218.654 13.8532 244.002C7.98809 255.268 3.49907 267.2 0.483055 279.54C-2.19098 290.42 6.60389 300.195 17.8029 300.195H291.94C303.127 300.195 311.971 290.408 309.297 279.528Z" fill="#34A853"/>
</mask>
<g mask="url(#mask0_54957_284)">
<path d="M314.695 110.189H-22.6875V300.232H314.695V110.177V110.189Z" fill="#4FAF53"/>
<g filter="url(#filter0_f_54957_284)">
<path d="M148.475 181.756C180.465 207.175 90.3211 209.999 55.4728 265.443C20.6368 320.874 48.5056 417.258 16.5153 391.851C-3.24552 361.434 -6.33661 299.581 28.5117 244.125C63.3477 188.694 121.171 170.471 148.353 181.756H148.475Z" fill="url(#paint0_linear_54957_284)" fill-opacity="0.4"/>
</g>
<g filter="url(#filter1_f_54957_284)">
<path d="M162.311 181.584C128.702 205.603 223.433 208.268 260.048 260.666C296.663 313.052 267.371 404.131 300.993 380.124C321.759 351.377 324.998 292.925 288.383 240.527C251.768 188.129 191.014 170.913 162.434 181.584H162.311Z" fill="url(#paint1_linear_54957_284)" fill-opacity="0.4"/>
</g>
<g opacity="0.6" filter="url(#filter2_f_54957_284)">
<path d="M-20.1608 259.279C-33.0035 299.741 -39.615 333.743 -34.9293 335.229C-30.2436 336.715 -16.0393 305.144 -3.18433 264.682C9.65839 224.232 62.6361 180.123 57.9504 178.637C53.2648 177.139 -7.30578 218.829 -20.1608 259.279Z" fill="#8BD8A0"/>
</g>
<g opacity="0.5" filter="url(#filter3_f_54957_284)">
<path d="M315.345 255.595C328.188 296.045 334.799 330.047 330.114 331.533C325.428 333.031 311.224 301.448 298.381 260.986C285.538 220.536 232.548 176.427 237.234 174.941C241.92 173.455 302.49 215.145 315.345 255.595Z" fill="#8BD8A0"/>
</g>
<g opacity="0.7" filter="url(#filter4_f_54957_284)">
<path d="M56.9932 147.729C69.701 168.641 75.2699 178.612 73.43 179.742C71.59 180.859 63.016 172.718 50.2959 151.805C31.087 134.896 51.3999 112.006 53.2521 110.877C55.092 109.747 38.0788 120.013 56.9932 147.729Z" fill="#0D652D"/>
</g>
<g opacity="0.1" filter="url(#filter5_f_54957_284)">
<path d="M70.9775 181.916C72.4985 180.933 64.4764 165.927 53.032 148.428C41.6122 130.93 31.1123 117.545 29.5913 118.539C28.0703 119.522 36.0924 134.528 47.5368 152.026C58.9566 169.537 69.4565 182.922 70.9775 181.916Z" fill="#202124"/>
</g>
<g opacity="0.3" filter="url(#filter6_f_54957_284)">
<path d="M72.8171 137.058C86.126 158.928 92.6148 168.961 94.0867 168.052C95.5587 167.155 91.474 155.674 78.1652 133.791C65.3348 104.565 42.2007 122.003 44.4822 125.195C48.9226 133.754 55.8039 106.383 72.8171 137.058Z" fill="white"/>
</g>
<path opacity="0.15" d="M31.6886 129.21C34.0192 137.291 43.2802 141.699 52.3694 139.059C61.4587 136.431 66.9417 127.761 64.5989 119.681C62.2683 111.601 53.0073 107.193 43.918 109.833C34.841 112.461 29.358 121.13 31.6886 129.21Z" fill="url(#paint2_radial_54957_284)" fill-opacity="0.9"/>
<path opacity="0.15" d="M243.722 127.098C246.126 135.4 255.988 139.845 265.74 137.008C275.504 134.184 281.465 125.158 279.073 116.857C276.669 108.556 266.807 104.111 257.056 106.947C247.292 109.772 241.33 118.797 243.722 127.098Z" fill="url(#paint3_radial_54957_284)" fill-opacity="0.9"/>
<g opacity="0.1" filter="url(#filter7_f_54957_284)">
<path d="M237.981 183.058C236.436 182.088 244.237 166.971 255.375 149.288C266.525 131.606 276.804 118.049 278.337 119.019C279.87 119.989 272.081 135.105 260.931 152.788C249.794 170.471 239.527 184.028 237.981 183.058Z" fill="#202124"/>
</g>
<mask id="mask1_54957_284" style="mask-type:alpha" maskUnits="userSpaceOnUse" x="208" y="149" width="55" height="36">
<path d="M240.435 183.328C232.953 178.662 215.854 170.631 208.236 167.205L213.265 149.387L262.428 169.182C258.209 175.85 247.918 188.007 240.435 183.328Z" fill="black"/>
</mask>
<g mask="url(#mask1_54957_284)">
<g style="mix-blend-mode:multiply" opacity="0.3" filter="url(#filter8_f_54957_284)">
<path d="M245.441 180.725C232.058 175.064 220.626 171.822 219.927 173.492C219.215 175.174 229.372 179.877 242.754 185.551C256.149 191.212 267.704 195.694 268.415 194.024C269.114 192.341 258.835 186.398 245.441 180.725Z" fill="#0D652D"/>
</g>
<g style="mix-blend-mode:screen" opacity="0.3" filter="url(#filter9_f_54957_284)">
<path d="M218.001 170.029C214.272 168.199 210.948 167.303 210.592 168.028C210.236 168.764 213.045 170.324 216.762 172.166C220.491 174.008 223.754 175.408 224.109 174.683C224.465 173.946 221.73 171.859 218.001 170.029Z" fill="#81C995"/>
</g>
</g>
<mask id="mask2_54957_284" style="mask-type:alpha" maskUnits="userSpaceOnUse" x="45" y="150" width="55" height="36">
<path d="M67.7266 184.814C75.0986 179.988 92.026 171.625 99.582 168.027L94.1848 150.32L45.4512 171.122C49.7934 177.704 60.3423 189.64 67.7266 184.814Z" fill="black"/>
</mask>
<g mask="url(#mask2_54957_284)">
<g style="mix-blend-mode:multiply" opacity="0.3" filter="url(#filter10_f_54957_284)">
<path d="M62.6602 182.21C75.9323 176.267 87.2908 172.791 88.039 174.449C88.775 176.107 78.7167 181.031 65.4447 186.975C52.1726 192.918 40.716 197.634 39.98 195.976C39.2441 194.318 49.3759 188.153 62.6602 182.21Z" fill="#0D652D"/>
</g>
<g style="mix-blend-mode:screen" opacity="0.3" filter="url(#filter11_f_54957_284)">
<path d="M89.8049 170.986C93.4848 169.071 96.7966 168.113 97.1646 168.838C97.5326 169.562 94.7727 171.171 91.0806 173.086C87.3885 175.002 84.1624 176.476 83.7945 175.751C83.4265 175.039 86.1128 172.902 89.8049 170.986Z" fill="#81C995"/>
</g>
</g>
<g opacity="0.7" filter="url(#filter12_f_54957_284)">
<path d="M253.621 148.6C241.392 169.795 236.056 179.902 237.92 180.982C239.809 182.063 248.175 173.725 260.404 152.518C279.221 135.166 258.368 112.743 256.491 111.663C254.627 110.582 271.873 120.455 253.621 148.6Z" fill="#0D652D"/>
</g>
<g opacity="0.3" filter="url(#filter13_f_54957_284)">
<path d="M236.792 138.236C224.342 159.837 218.233 169.71 216.651 168.801C215.081 167.892 218.638 156.521 231.088 134.945C245.268 97.455 273.382 102.404 268.77 122.911C265.139 131.323 252.542 107.967 236.792 138.236Z" fill="white"/>
</g>
<path d="M94.1725 234.707C96.2087 232.398 94.4915 227.498 90.3332 223.753C86.1627 220.008 81.1458 218.841 79.1096 221.162C77.0734 223.471 78.7907 228.37 82.949 232.116C87.1195 235.861 92.1363 237.028 94.1725 234.707Z" fill="url(#paint4_radial_54957_284)" fill-opacity="0.7"/>
<path d="M232.658 232.349C236.828 228.603 238.545 223.704 236.497 221.395C234.461 219.074 229.444 220.241 225.286 223.974C221.115 227.731 219.398 232.631 221.446 234.94C223.482 237.261 228.499 236.082 232.658 232.349Z" fill="url(#paint5_radial_54957_284)" fill-opacity="0.7"/>
<path opacity="0.09" d="M92.4921 250.081C97.5458 237.47 92.2468 229.697 88.9717 227.29C79.5145 215.575 66.7699 224.613 63.0042 229.709C59.2139 234.67 53.6696 243.585 59.0912 255.816C64.5129 268.034 86.1996 265.873 92.4921 250.081ZM223.213 250.364C218.172 237.887 223.458 229.979 226.746 227.695C236.191 215.98 248.923 225.018 252.713 230.114C256.491 235.075 262.036 243.99 256.614 256.098C251.192 268.194 229.506 266.155 223.213 250.486V250.364Z" fill="#011B04"/>
<path d="M251.72 258.984C259.533 253.765 260.797 241.669 254.492 232.116C248.187 222.562 236.706 219.124 228.904 224.343C221.091 229.574 219.827 241.657 226.132 251.211C232.425 260.764 243.906 264.203 251.72 258.984Z" fill="#202124"/>
<path d="M89.4748 250.83C95.7796 241.276 94.6511 229.426 86.9602 224.207C79.2693 219.123 68.0457 222.685 61.7409 232.103C55.436 241.657 56.5768 253.495 64.2677 258.726C71.9586 263.81 83.1699 260.249 89.4748 250.83ZM226.145 250.965C219.84 241.424 220.969 229.574 228.659 224.355C236.35 219.259 247.574 222.832 253.879 232.251C260.184 241.804 259.043 253.642 251.352 258.861C243.661 263.957 232.45 260.396 226.145 250.965Z" fill="black"/>
<path d="M64.0103 230.973C57.963 238.366 57.3252 247.146 58.0857 250.842C56.5769 243.585 57.0799 236.573 62.8695 229.451C66.0219 225.497 70.9407 223.335 74.4733 222.316C74.9762 222.193 75.6141 222.07 75.9821 221.935C76.6782 221.716 77.3997 221.588 78.1287 221.555C77.5031 221.677 76.7426 221.813 75.9821 221.935C75.4914 221.935 74.9762 222.193 74.4733 222.316C71.9465 223.212 68.5488 225.116 63.8876 230.973H64.0103Z" fill="black"/>
<path opacity="0.8" d="M91.1303 232.779C88.6157 222.206 80.1643 221.186 76.2637 221.948C79.6614 220.413 85.7087 222.316 88.3582 225.386C90.3821 227.805 91.1303 231.366 91.2652 232.901L91.1426 232.779H91.1303Z" fill="url(#paint6_linear_54957_284)"/>
<path d="M235.97 223.827C227.015 224.33 224.12 231.465 223.74 234.903C224.623 232.742 227.911 228.272 233.578 227.142C239.245 226.123 246.69 232.607 249.708 236.045L252.48 232.865C250.714 229.549 244.924 223.188 235.97 223.827Z" fill="url(#paint7_linear_54957_284)"/>
<path d="M251.585 231.219C257.645 238.6 258.27 247.392 257.51 251.076C259.031 243.831 258.516 236.819 252.726 229.684C249.574 225.743 244.655 223.569 241.122 222.562C240.631 222.439 239.994 222.304 239.613 222.169C238.917 221.954 238.195 221.83 237.467 221.801C238.105 221.924 238.853 222.046 239.613 222.169C240.116 222.169 240.619 222.427 241.122 222.55C243.649 223.446 247.047 225.362 251.72 231.219H251.585Z" fill="black"/>
<path opacity="0.8" d="M71.9343 228.223C68.4016 228.984 65.7521 232.68 65.0039 234.461L66.7702 237.138C66.7702 237.138 68.0214 234.964 69.4075 233.577C70.7936 232.164 72.9401 230.63 73.8233 230.003L72.057 228.223H71.9343ZM243.784 228.309C247.194 228.947 249.831 232.521 250.714 234.301L248.96 236.843C248.96 236.843 247.697 234.805 246.311 233.405C244.925 232.005 242.901 230.605 242.018 229.966L243.784 228.309Z" fill="#E2DCE1"/>
<g opacity="0.8">
<path d="M86.3103 247.306C84.6666 248.202 82.0171 249.479 80.8886 249.983L79.8828 253.04C82.52 252.144 84.4213 250.621 85.1696 249.983L86.3103 247.306ZM91.597 233.921C91.3258 233.005 90.9897 232.111 90.5912 231.244V232.386C91.0819 233.282 91.4744 234.928 91.597 235.701C91.597 235.443 91.8424 234.682 91.597 233.786V233.921Z" fill="#E2DCE1"/>
</g>
<g opacity="0.8">
<path d="M229.04 247.576C230.671 248.46 233.333 249.737 234.461 250.253L235.467 253.299C233.527 252.622 231.73 251.59 230.168 250.253L229.04 247.576ZM223.851 234.179C224.097 233.283 224.612 232.018 224.857 231.502V232.656C224.368 233.709 224.029 234.825 223.851 235.972C223.851 235.702 223.606 234.94 223.851 234.056V234.179Z" fill="#E2DCE1"/>
</g>
</g>
</g>
<defs>
<filter id="filter0_f_54957_284" x="0.897461" y="177.571" width="155.332" height="219.463" filterUnits="userSpaceOnUse" color-interpolation-filters="sRGB">
<feFlood flood-opacity="0" result="BackgroundImageFix"/>
<feBlend mode="normal" in="SourceGraphic" in2="BackgroundImageFix" result="shape"/>
<feGaussianBlur stdDeviation="0.5" result="effect1_foregroundBlur_54957_284"/>
</filter>
<filter id="filter1_f_54957_284" x="154.217" y="177.571" width="163.134" height="207.505" filterUnits="userSpaceOnUse" color-interpolation-filters="sRGB">
<feFlood flood-opacity="0" result="BackgroundImageFix"/>
<feBlend mode="normal" in="SourceGraphic" in2="BackgroundImageFix" result="shape"/>
<feGaussianBlur stdDeviation="0.5" result="effect1_foregroundBlur_54957_284"/>
</filter>
<filter id="filter2_f_54957_284" x="-55.2515" y="159.782" width="132.311" height="194.314" filterUnits="userSpaceOnUse" color-interpolation-filters="sRGB">
<feFlood flood-opacity="0" result="BackgroundImageFix"/>
<feBlend mode="normal" in="SourceGraphic" in2="BackgroundImageFix" result="shape"/>
<feGaussianBlur stdDeviation="9.408" result="effect1_foregroundBlur_54957_284"/>
</filter>
<filter id="filter3_f_54957_284" x="218.125" y="156.086" width="132.31" height="194.314" filterUnits="userSpaceOnUse" color-interpolation-filters="sRGB">
<feFlood flood-opacity="0" result="BackgroundImageFix"/>
<feBlend mode="normal" in="SourceGraphic" in2="BackgroundImageFix" result="shape"/>
<feGaussianBlur stdDeviation="9.408" result="effect1_foregroundBlur_54957_284"/>
</filter>
<filter id="filter4_f_54957_284" x="17.0077" y="85.7055" width="81.8532" height="119.225" filterUnits="userSpaceOnUse" color-interpolation-filters="sRGB">
<feFlood flood-opacity="0" result="BackgroundImageFix"/>
<feBlend mode="normal" in="SourceGraphic" in2="BackgroundImageFix" result="shape"/>
<feGaussianBlur stdDeviation="12.544" result="effect1_foregroundBlur_54957_284"/>
</filter>
<filter id="filter5_f_54957_284" x="23.1343" y="112.215" width="54.3003" height="76.0254" filterUnits="userSpaceOnUse" color-interpolation-filters="sRGB">
<feFlood flood-opacity="0" result="BackgroundImageFix"/>
<feBlend mode="normal" in="SourceGraphic" in2="BackgroundImageFix" result="shape"/>
<feGaussianBlur stdDeviation="3.136" result="effect1_foregroundBlur_54957_284"/>
</filter>
<filter id="filter6_f_54957_284" x="25.5092" y="98.3105" width="87.6779" height="88.6139" filterUnits="userSpaceOnUse" color-interpolation-filters="sRGB">
<feFlood flood-opacity="0" result="BackgroundImageFix"/>
<feBlend mode="normal" in="SourceGraphic" in2="BackgroundImageFix" result="shape"/>
<feGaussianBlur stdDeviation="9.408" result="effect1_foregroundBlur_54957_284"/>
</filter>
<filter id="filter7_f_54957_284" x="231.514" y="112.698" width="53.2877" height="76.6812" filterUnits="userSpaceOnUse" color-interpolation-filters="sRGB">
<feFlood flood-opacity="0" result="BackgroundImageFix"/>
<feBlend mode="normal" in="SourceGraphic" in2="BackgroundImageFix" result="shape"/>
<feGaussianBlur stdDeviation="3.136" result="effect1_foregroundBlur_54957_284"/>
</filter>
<filter id="filter8_f_54957_284" x="207.348" y="160.509" width="73.6451" height="46.4122" filterUnits="userSpaceOnUse" color-interpolation-filters="sRGB">
<feFlood flood-opacity="0" result="BackgroundImageFix"/>
<feBlend mode="normal" in="SourceGraphic" in2="BackgroundImageFix" result="shape"/>
<feGaussianBlur stdDeviation="6.272" result="effect1_foregroundBlur_54957_284"/>
</filter>
<filter id="filter9_f_54957_284" x="203.036" y="160.25" width="28.6311" height="22.1536" filterUnits="userSpaceOnUse" color-interpolation-filters="sRGB">
<feFlood flood-opacity="0" result="BackgroundImageFix"/>
<feBlend mode="normal" in="SourceGraphic" in2="BackgroundImageFix" result="shape"/>
<feGaussianBlur stdDeviation="3.763" result="effect1_foregroundBlur_54957_284"/>
</filter>
<filter id="filter10_f_54957_284" x="27.3984" y="161.492" width="73.2228" height="47.3639" filterUnits="userSpaceOnUse" color-interpolation-filters="sRGB">
<feFlood flood-opacity="0" result="BackgroundImageFix"/>
<feBlend mode="normal" in="SourceGraphic" in2="BackgroundImageFix" result="shape"/>
<feGaussianBlur stdDeviation="6.272" result="effect1_foregroundBlur_54957_284"/>
</filter>
<filter id="filter11_f_54957_284" x="76.2347" y="161.07" width="28.489" height="22.3953" filterUnits="userSpaceOnUse" color-interpolation-filters="sRGB">
<feFlood flood-opacity="0" result="BackgroundImageFix"/>
<feBlend mode="normal" in="SourceGraphic" in2="BackgroundImageFix" result="shape"/>
<feGaussianBlur stdDeviation="3.763" result="effect1_foregroundBlur_54957_284"/>
</filter>
<filter id="filter12_f_54957_284" x="212.47" y="86.4955" width="80.8332" height="119.667" filterUnits="userSpaceOnUse" color-interpolation-filters="sRGB">
<feFlood flood-opacity="0" result="BackgroundImageFix"/>
<feBlend mode="normal" in="SourceGraphic" in2="BackgroundImageFix" result="shape"/>
<feGaussianBlur stdDeviation="12.544" result="effect1_foregroundBlur_54957_284"/>
</filter>
<filter id="filter13_f_54957_284" x="197.487" y="88.2812" width="90.6042" height="99.3932" filterUnits="userSpaceOnUse" color-interpolation-filters="sRGB">
<feFlood flood-opacity="0" result="BackgroundImageFix"/>
<feBlend mode="normal" in="SourceGraphic" in2="BackgroundImageFix" result="shape"/>
<feGaussianBlur stdDeviation="9.408" result="effect1_foregroundBlur_54957_284"/>
</filter>
<linearGradient id="paint0_linear_54957_284" x1="26.7944" y1="242.725" x2="74.8958" y2="272.861" gradientUnits="userSpaceOnUse">
<stop stop-color="#A8F0B9"/>
<stop offset="0.807" stop-color="#ADEEBC" stop-opacity="0"/>
</linearGradient>
<linearGradient id="paint1_linear_54957_284" x1="290.186" y1="239.189" x2="242.804" y2="272.221" gradientUnits="userSpaceOnUse">
<stop offset="0.292" stop-color="#A8F0B9"/>
<stop offset="0.828" stop-color="#ADEEBC" stop-opacity="0"/>
</linearGradient>
<radialGradient id="paint2_radial_54957_284" cx="0" cy="0" r="1" gradientUnits="userSpaceOnUse" gradientTransform="translate(48.1499 124.446) rotate(163.299) scale(10.7692 8.15628)">
<stop stop-color="white"/>
<stop offset="0.948" stop-color="white" stop-opacity="0"/>
</radialGradient>
<radialGradient id="paint3_radial_54957_284" cx="0" cy="0" r="1" gradientUnits="userSpaceOnUse" gradientTransform="translate(261.398 121.978) rotate(163.323) scale(11.5653 8.38853)">
<stop stop-color="white"/>
<stop offset="0.948" stop-color="white" stop-opacity="0"/>
</radialGradient>
<radialGradient id="paint4_radial_54957_284" cx="0" cy="0" r="1" gradientUnits="userSpaceOnUse" gradientTransform="translate(95.1844 229.385) rotate(132.941) scale(4.34224 7.90351)">
<stop stop-color="#93E19F"/>
<stop offset="1" stop-color="#93E19F" stop-opacity="0"/>
</radialGradient>
<radialGradient id="paint5_radial_54957_284" cx="0" cy="0" r="1" gradientUnits="userSpaceOnUse" gradientTransform="translate(230.933 227.708) rotate(47.0587) scale(4.33844 7.8997)">
<stop stop-color="#93E19F"/>
<stop offset="1" stop-color="#93E19F" stop-opacity="0"/>
</radialGradient>
<linearGradient id="paint6_linear_54957_284" x1="83.3167" y1="217.49" x2="83.956" y2="232.386" gradientUnits="userSpaceOnUse">
<stop stop-color="#E2DDE2"/>
<stop offset="1" stop-color="#E2DDE2" stop-opacity="0"/>
</linearGradient>
<linearGradient id="paint7_linear_54957_284" x1="238.116" y1="223.827" x2="238.116" y2="236.045" gradientUnits="userSpaceOnUse">
<stop stop-color="#373637"/>
<stop offset="1" stop-color="#373637" stop-opacity="0"/>
</linearGradient>
<clipPath id="clip0_54957_284">
<rect width="310" height="184" fill="white" transform="translate(0 116)"/>
</clipPath>
</defs>
</svg>
