<svg width="48" height="48" viewBox="0 0 48 48" fill="none" xmlns="http://www.w3.org/2000/svg">
<rect width="48" height="48" rx="24" fill="#E2E2E9"/>
<mask id="mask0_238_1371" style="mask-type:alpha" maskUnits="userSpaceOnUse" x="12" y="12" width="24" height="24">
<rect x="12" y="12" width="24" height="24" fill="#D9D9D9"/>
</mask>
<g mask="url(#mask0_238_1371)">
<path d="M18.4 31L17 29.6L22.6 24L17 18.4L18.4 17L24 22.6L29.6 17L31 18.4L25.4 24L31 29.6L29.6 31L24 25.4L18.4 31Z" fill="#161D1D"/>
<path d="M18.4 31L17 29.6L22.6 24L17 18.4L18.4 17L24 22.6L29.6 17L31 18.4L25.4 24L31 29.6L29.6 31L24 25.4L18.4 31Z" fill="black" fill-opacity="0.2"/>
<path d="M18.4 31L17 29.6L22.6 24L17 18.4L18.4 17L24 22.6L29.6 17L31 18.4L25.4 24L31 29.6L29.6 31L24 25.4L18.4 31Z" fill="black" fill-opacity="0.2"/>
<path d="M18.4 31L17 29.6L22.6 24L17 18.4L18.4 17L24 22.6L29.6 17L31 18.4L25.4 24L31 29.6L29.6 31L24 25.4L18.4 31Z" fill="black" fill-opacity="0.2"/>
</g>
</svg>
