<svg width="435" height="79" viewBox="0 0 435 79" fill="none" xmlns="http://www.w3.org/2000/svg">
    <g filter="url(#filter0_dd_307_170)">
        <path
            d="M40.3759 15.456L51.2719 47.616C51.7199 48.928 51.8799 50.24 51.7519 51.552C51.6559 52.832 51.3199 54.032 50.7439 55.152C50.1999 56.304 49.4319 57.312 48.4399 58.176C47.4799 59.072 46.3599 59.744 45.0799 60.192C43.7679 60.64 42.4559 60.8 41.1439 60.672C39.8319 60.576 38.5999 60.24 37.4479 59.664C36.3279 59.12 35.3199 58.352 34.4239 57.36C33.5599 56.4 32.9039 55.264 32.4559 53.952C32.1039 52.832 31.9279 51.744 31.9279 50.688L32.3119 16.752C32.3119 15.6 32.7119 14.624 33.5119 13.824C34.3439 13.024 35.3359 12.624 36.4879 12.624C37.4159 12.656 38.2159 12.928 38.8879 13.44C39.5919 13.952 40.0879 14.624 40.3759 15.456ZM25.8799 16.512L28.3759 50.208C28.4719 51.392 28.3279 52.528 27.9439 53.616C27.5599 54.704 26.9999 55.664 26.2639 56.496C25.5599 57.328 24.6959 58 23.6719 58.512C22.6479 59.056 21.5439 59.376 20.3599 59.472C19.1439 59.568 17.9919 59.424 16.9039 59.04C15.8479 58.688 14.8879 58.144 14.0239 57.408C13.1919 56.672 12.5039 55.792 11.9599 54.768C11.4479 53.776 11.1439 52.672 11.0479 51.456C10.9839 50.688 11.0319 49.92 11.1919 49.152L17.7199 16.032C17.8159 15.456 18.0239 14.944 18.3439 14.496C18.6639 14.048 19.0319 13.68 19.4479 13.392C19.8959 13.104 20.3759 12.912 20.8879 12.816C21.4319 12.688 21.9919 12.672 22.5679 12.768C23.4959 12.96 24.2639 13.408 24.8719 14.112C25.4799 14.816 25.8159 15.616 25.8799 16.512ZM38.5519 41.472L22.6639 38.736C21.7359 38.576 20.9999 38.128 20.4559 37.392C19.9439 36.624 19.7679 35.776 19.9279 34.848C20.0559 34.112 20.3759 33.504 20.8879 33.024C21.3999 32.544 21.9919 32.24 22.6639 32.112L38.5519 29.376C39.3839 29.248 39.9439 29.328 40.2319 29.616C40.5519 29.872 40.7279 30.288 40.7599 30.864C40.8239 31.408 40.8239 32.064 40.7599 32.832C40.7279 33.6 40.7919 34.4 40.9519 35.232C41.0799 36.064 41.2879 36.832 41.5759 37.536C41.8959 38.24 42.1199 38.864 42.2479 39.408C42.3759 39.92 42.3439 40.368 42.1519 40.752C41.9599 41.104 41.4479 41.344 40.6159 41.472C39.9119 41.568 39.2239 41.568 38.5519 41.472ZM22.0399 15.936C22.0399 16.288 22.1519 16.592 22.3759 16.848C22.6319 17.072 22.9359 17.184 23.2879 17.184C23.6399 17.184 23.9439 17.072 24.1999 16.848C24.4559 16.592 24.5839 16.288 24.5839 15.936C24.5839 15.584 24.4559 15.28 24.1999 15.024C23.9439 14.768 23.6399 14.64 23.2879 14.64C22.9359 14.64 22.6319 14.768 22.3759 15.024C22.1519 15.28 22.0399 15.584 22.0399 15.936ZM39.3199 17.52C39.2559 17.264 39.0799 17.056 38.7919 16.896C38.5039 16.736 38.2319 16.688 37.9759 16.752C37.6559 16.848 37.4159 17.04 37.2559 17.328C37.1279 17.584 37.0959 17.84 37.1599 18.096L47.5279 48.432C47.5919 48.688 47.7679 48.896 48.0559 49.056C48.3439 49.216 48.6159 49.248 48.8719 49.152C49.1599 49.088 49.3839 48.928 49.5439 48.672C49.7039 48.384 49.7519 48.112 49.6879 47.856L39.3199 17.52Z"
            fill="url(#paint0_linear_307_170)" />
        <path
            d="M71.1477 45.504C71.4357 45.632 71.7077 45.712 71.9637 45.744C72.0597 45.776 72.1397 45.808 72.2037 45.84C72.2997 45.84 72.3957 45.856 72.4917 45.888H72.6357L72.6837 45.936H72.9237L73.0677 45.984C73.2277 46.016 73.4037 46.048 73.5957 46.08C73.7877 46.08 73.9797 46.08 74.1717 46.08C74.8757 46.112 75.6277 46.08 76.4277 45.984C76.8117 45.92 77.1957 45.84 77.5797 45.744C77.9637 45.648 78.3477 45.52 78.7317 45.36C79.0837 45.232 79.4517 45.056 79.8357 44.832C80.0277 44.704 80.2037 44.592 80.3637 44.496C80.5557 44.4 80.7317 44.272 80.8917 44.112C81.0517 43.952 81.2117 43.808 81.3717 43.68C81.5637 43.52 81.7397 43.36 81.8997 43.2C81.9957 43.104 82.0757 43.008 82.1397 42.912C82.2357 42.816 82.3157 42.72 82.3797 42.624C82.4437 42.56 82.4757 42.512 82.4757 42.48C82.5077 42.448 82.5557 42.4 82.6197 42.336C82.6837 42.272 82.7157 42.224 82.7157 42.192C82.7477 42.128 82.7957 42.064 82.8597 42L83.5797 40.944C83.8997 40.464 84.2837 40.08 84.7317 39.792C85.2117 39.504 85.7077 39.312 86.2197 39.216C86.7637 39.12 87.3077 39.136 87.8517 39.264C88.3957 39.36 88.9077 39.568 89.3877 39.888C90.2197 40.464 90.7637 41.248 91.0197 42.24C91.0837 42.464 91.1477 42.736 91.2117 43.056C91.2757 43.376 91.3077 43.632 91.3077 43.824C91.3397 44.08 91.3557 44.352 91.3557 44.64C91.3877 44.928 91.4037 45.2 91.4037 45.456C91.3397 46.576 91.1957 47.664 90.9717 48.72C90.6837 49.872 90.2837 50.928 89.7717 51.888C89.3237 52.816 88.7477 53.76 88.0437 54.72C86.6357 56.512 84.9877 58.016 83.0997 59.232L81.6597 60.096C81.4037 60.224 81.1477 60.336 80.8917 60.432C80.6357 60.56 80.3797 60.688 80.1237 60.816C79.6117 61.04 79.0837 61.232 78.5397 61.392C78.0277 61.584 77.4997 61.744 76.9557 61.872C76.4117 62.032 75.8677 62.16 75.3237 62.256C74.7797 62.352 74.2357 62.432 73.6917 62.496C73.4997 62.496 73.3557 62.512 73.2597 62.544H72.6357L72.4437 62.592H70.3317C69.2117 62.528 68.0757 62.384 66.9237 62.16C65.8037 61.936 64.6997 61.6 63.6117 61.152C62.5237 60.736 61.4677 60.224 60.4437 59.616C59.4197 59.04 58.4437 58.352 57.5157 57.552C56.5877 56.752 55.7397 55.872 54.9717 54.912C54.2037 53.952 53.5317 52.912 52.9557 51.792C52.7957 51.536 52.6517 51.264 52.5237 50.976C52.3957 50.688 52.2677 50.384 52.1397 50.064C52.0117 49.776 51.8837 49.488 51.7557 49.2C51.6597 48.912 51.5637 48.608 51.4677 48.288C51.1157 47.04 50.8757 45.792 50.7477 44.544C50.7157 44.192 50.6997 43.872 50.6997 43.584C50.6997 43.264 50.6997 42.944 50.6997 42.624C50.6997 42.304 50.7157 42 50.7477 41.712C50.7477 41.392 50.7637 41.072 50.7957 40.752C50.8597 40.112 50.9557 39.488 51.0837 38.88C51.2437 38.272 51.4197 37.664 51.6117 37.056C51.9957 35.872 52.5077 34.768 53.1477 33.744C53.7557 32.688 54.4597 31.744 55.2597 30.912C56.0597 30.048 56.9077 29.296 57.8037 28.656C58.6997 27.984 59.6117 27.408 60.5397 26.928C61.4997 26.448 62.4757 26.048 63.4677 25.728C64.4597 25.408 65.4517 25.168 66.4437 25.008C66.6997 24.944 66.9397 24.912 67.1637 24.912C67.4197 24.88 67.6757 24.848 67.9317 24.816C68.1877 24.784 68.4277 24.768 68.6517 24.768C68.8757 24.768 69.1157 24.752 69.3717 24.72C69.6277 24.72 69.8677 24.72 70.0917 24.72C70.3157 24.72 70.5557 24.736 70.8117 24.768C71.0677 24.768 71.3077 24.784 71.5317 24.816C71.7557 24.816 71.9957 24.832 72.2517 24.864C73.2757 24.96 74.2037 25.12 75.0357 25.344C75.8997 25.568 76.7797 25.856 77.6757 26.208C78.5717 26.56 79.4037 26.96 80.1717 27.408L81.3237 28.128C81.4197 28.192 81.4997 28.272 81.5637 28.368C81.6597 28.432 81.7557 28.496 81.8517 28.56C81.9797 28.624 82.0757 28.688 82.1397 28.752L82.2837 28.848V28.896H82.3317L82.3797 28.944C83.0197 29.488 83.3717 30.16 83.4357 30.96C83.5317 31.728 83.3397 32.432 82.8597 33.072V33.12C82.7957 33.184 82.7637 33.216 82.7637 33.216C82.6997 33.28 82.6517 33.328 82.6197 33.36C82.6197 33.392 82.6037 33.424 82.5717 33.456C82.5717 33.488 82.5557 33.504 82.5237 33.504C82.5237 33.504 82.5237 33.52 82.5237 33.552L71.1477 45.504ZM72.4437 33.696C71.3237 33.984 70.3477 34.416 69.5157 34.992C68.6837 35.536 67.9957 36.176 67.4517 36.912C67.1637 37.264 66.9237 37.632 66.7317 38.016C66.5717 38.368 66.4437 38.72 66.3477 39.072C66.2837 39.232 66.2357 39.392 66.2037 39.552C66.1717 39.712 66.1557 39.872 66.1557 40.032C66.0917 40.32 66.0917 40.592 66.1557 40.848C66.1557 41.104 66.2037 41.344 66.2997 41.568C66.2997 41.664 66.3317 41.776 66.3957 41.904L66.5397 42.192C66.6357 42.448 66.7477 42.64 66.8757 42.768L75.1317 33.36C74.6837 33.392 74.2357 33.44 73.7877 33.504C73.3397 33.536 72.8917 33.6 72.4437 33.696ZM77.5317 29.904C77.5317 30.256 77.6437 30.56 77.8677 30.816C78.1237 31.04 78.4277 31.152 78.7797 31.152C79.1317 31.152 79.4357 31.04 79.6917 30.816C79.9477 30.56 80.0757 30.256 80.0757 29.904C80.0757 29.552 79.9477 29.248 79.6917 28.992C79.4357 28.736 79.1317 28.608 78.7797 28.608C78.4277 28.608 78.1237 28.736 77.8677 28.992C77.6437 29.248 77.5317 29.552 77.5317 29.904ZM86.7477 41.712C86.7477 42.064 86.8597 42.368 87.0837 42.624C87.3397 42.848 87.6437 42.96 87.9957 42.96C88.3477 42.96 88.6517 42.848 88.9077 42.624C89.1637 42.368 89.2917 42.064 89.2917 41.712C89.2917 41.36 89.1637 41.056 88.9077 40.8C88.6517 40.544 88.3477 40.416 87.9957 40.416C87.6437 40.416 87.3397 40.544 87.0837 40.8C86.8597 41.056 86.7477 41.36 86.7477 41.712Z"
            fill="url(#paint1_linear_307_170)" />
        <path
            d="M109.843 16.752L111.715 50.592C111.779 52.032 111.571 53.392 111.091 54.672C110.643 55.952 109.971 57.088 109.075 58.08C108.179 59.072 107.123 59.872 105.907 60.48C104.691 61.088 103.363 61.44 101.923 61.536C100.483 61.6 99.1228 61.392 97.8428 60.912C96.5628 60.464 95.4268 59.792 94.4348 58.896C93.4428 58 92.6428 56.944 92.0348 55.728C91.4268 54.512 91.0748 53.184 90.9788 51.744C90.9148 50.72 91.0108 49.728 91.2668 48.768L99.0428 15.792C99.2348 15.056 99.5388 14.4 99.9548 13.824C100.403 13.248 100.915 12.784 101.491 12.432C102.099 12.048 102.755 11.792 103.459 11.664C104.195 11.536 104.931 11.552 105.667 11.712C106.883 12 107.859 12.624 108.595 13.584C109.363 14.512 109.779 15.568 109.843 16.752ZM104.947 15.792C104.947 16.144 105.059 16.448 105.283 16.704C105.539 16.928 105.843 17.04 106.195 17.04C106.547 17.04 106.851 16.928 107.107 16.704C107.363 16.448 107.491 16.144 107.491 15.792C107.491 15.44 107.363 15.136 107.107 14.88C106.851 14.624 106.547 14.496 106.195 14.496C105.843 14.496 105.539 14.624 105.283 14.88C105.059 15.136 104.947 15.44 104.947 15.792Z"
            fill="url(#paint2_linear_307_170)" />
        <path
            d="M132.202 16.752L134.074 50.592C134.138 52.032 133.93 53.392 133.45 54.672C133.002 55.952 132.33 57.088 131.434 58.08C130.538 59.072 129.482 59.872 128.266 60.48C127.05 61.088 125.722 61.44 124.282 61.536C122.842 61.6 121.482 61.392 120.202 60.912C118.922 60.464 117.786 59.792 116.794 58.896C115.802 58 115.002 56.944 114.394 55.728C113.786 54.512 113.434 53.184 113.338 51.744C113.274 50.72 113.37 49.728 113.626 48.768L121.402 15.792C121.594 15.056 121.898 14.4 122.314 13.824C122.762 13.248 123.274 12.784 123.85 12.432C124.458 12.048 125.114 11.792 125.818 11.664C126.554 11.536 127.29 11.552 128.026 11.712C129.242 12 130.218 12.624 130.954 13.584C131.722 14.512 132.138 15.568 132.202 16.752ZM127.306 15.792C127.306 16.144 127.418 16.448 127.642 16.704C127.898 16.928 128.202 17.04 128.554 17.04C128.906 17.04 129.21 16.928 129.466 16.704C129.722 16.448 129.85 16.144 129.85 15.792C129.85 15.44 129.722 15.136 129.466 14.88C129.21 14.624 128.906 14.496 128.554 14.496C128.202 14.496 127.898 14.624 127.642 14.88C127.418 15.136 127.306 15.44 127.306 15.792Z"
            fill="url(#paint3_linear_307_170)" />
        <path
            d="M154.178 23.28C156.802 23.28 159.266 23.776 161.57 24.768C163.906 25.76 165.938 27.12 167.666 28.848C169.394 30.576 170.754 32.608 171.746 34.944C172.738 37.248 173.234 39.712 173.234 42.336C173.234 44.96 172.738 47.424 171.746 49.728C170.754 52.032 169.394 54.048 167.666 55.776C165.938 57.504 163.906 58.864 161.57 59.856C159.266 60.848 156.802 61.344 154.178 61.344C151.554 61.344 149.09 60.848 146.786 59.856C144.482 58.864 142.466 57.504 140.738 55.776C139.01 54.048 137.65 52.032 136.658 49.728C135.666 47.424 135.17 44.96 135.17 42.336C135.17 39.712 135.666 37.248 136.658 34.944C137.65 32.608 139.01 30.576 140.738 28.848C142.466 27.12 144.482 25.76 146.786 24.768C149.09 23.776 151.554 23.28 154.178 23.28ZM154.85 39.888C155.874 39.888 156.834 39.76 157.73 39.504C158.626 39.248 159.41 38.896 160.082 38.448C160.754 38 161.282 37.472 161.666 36.864C162.05 36.256 162.242 35.616 162.242 34.944C162.242 34.272 162.05 33.632 161.666 33.024C161.282 32.416 160.754 31.888 160.082 31.44C159.41 30.992 158.626 30.64 157.73 30.384C156.834 30.128 155.874 30 154.85 30C153.826 30 152.866 30.128 151.97 30.384C151.106 30.64 150.338 30.992 149.666 31.44C148.994 31.888 148.466 32.416 148.082 33.024C147.698 33.632 147.506 34.272 147.506 34.944C147.506 35.616 147.698 36.256 148.082 36.864C148.466 37.472 148.994 38 149.666 38.448C150.338 38.896 151.106 39.248 151.97 39.504C152.866 39.76 153.826 39.888 154.85 39.888ZM160.274 27.36C160.274 27.712 160.386 28.016 160.61 28.272C160.866 28.496 161.17 28.608 161.522 28.608C161.874 28.608 162.178 28.496 162.434 28.272C162.69 28.016 162.818 27.712 162.818 27.36C162.818 27.008 162.69 26.704 162.434 26.448C162.178 26.192 161.874 26.064 161.522 26.064C161.17 26.064 160.866 26.192 160.61 26.448C160.386 26.704 160.274 27.008 160.274 27.36ZM146.498 40.464C146.498 40.816 146.61 41.12 146.834 41.376C147.09 41.6 147.394 41.712 147.746 41.712C148.098 41.712 148.402 41.6 148.658 41.376C148.914 41.12 149.042 40.816 149.042 40.464C149.042 40.112 148.914 39.808 148.658 39.552C148.402 39.296 148.098 39.168 147.746 39.168C147.394 39.168 147.09 39.296 146.834 39.552C146.61 39.808 146.498 40.112 146.498 40.464Z"
            fill="url(#paint4_linear_307_170)" />
        <path
            d="M179.506 50.88L175.234 60C175.042 60.352 174.77 60.592 174.418 60.72C174.066 60.848 173.714 60.832 173.362 60.672C173.106 60.544 172.898 60.368 172.738 60.144C172.578 59.92 172.514 59.68 172.546 59.424L172.738 49.392C172.77 48.4 173.122 47.568 173.794 46.896C174.498 46.192 175.346 45.84 176.338 45.84C177.33 45.872 178.162 46.24 178.834 46.944C179.538 47.648 179.874 48.48 179.842 49.44C179.81 49.696 179.762 49.952 179.698 50.208C179.634 50.464 179.57 50.688 179.506 50.88Z"
            fill="url(#paint5_linear_307_170)" />
        <path
            d="M224.837 25.344L241.493 47.472C242.197 48.432 242.677 49.472 242.933 50.592C243.221 51.68 243.285 52.768 243.125 53.856C242.965 54.912 242.597 55.936 242.021 56.928C241.477 57.92 240.741 58.768 239.813 59.472C238.853 60.176 237.813 60.656 236.693 60.912C235.605 61.2 234.517 61.264 233.429 61.104C232.373 60.944 231.349 60.576 230.357 60C229.365 59.456 228.517 58.72 227.813 57.792C227.461 57.344 227.173 56.88 226.949 56.4C226.757 55.92 226.581 55.44 226.421 54.96L218.885 28.32C218.629 27.392 218.725 26.528 219.173 25.728C219.621 24.928 220.293 24.4 221.189 24.144C221.893 23.952 222.565 23.968 223.205 24.192C223.877 24.416 224.421 24.8 224.837 25.344ZM252.101 28.848L242.693 55.2C242.309 56.32 241.733 57.28 240.965 58.08C240.197 58.912 239.317 59.552 238.325 60C237.365 60.48 236.309 60.752 235.157 60.816C234.037 60.88 232.933 60.72 231.845 60.336C230.725 59.952 229.749 59.376 228.917 58.608C228.117 57.84 227.477 56.96 226.997 55.968C226.549 54.976 226.277 53.936 226.181 52.848C226.117 51.728 226.277 50.608 226.661 49.488C226.821 49.072 226.997 48.688 227.189 48.336C227.381 47.952 227.605 47.584 227.861 47.232L244.613 24.816C244.965 24.336 245.381 23.952 245.861 23.664C246.341 23.376 246.853 23.2 247.397 23.136C247.941 23.04 248.485 23.072 249.029 23.232C249.605 23.36 250.133 23.6 250.613 23.952C251.413 24.528 251.941 25.28 252.197 26.208C252.453 27.104 252.421 27.984 252.101 28.848ZM211.061 24.816L227.765 47.232C228.469 48.192 228.949 49.216 229.205 50.304C229.493 51.392 229.557 52.48 229.397 53.568C229.237 54.656 228.869 55.68 228.293 56.64C227.749 57.6 226.997 58.432 226.037 59.136C225.109 59.84 224.101 60.32 223.013 60.576C221.925 60.864 220.837 60.928 219.749 60.768C218.661 60.608 217.621 60.24 216.629 59.664C215.669 59.12 214.837 58.368 214.133 57.408C213.621 56.672 213.221 55.936 212.933 55.2L203.573 28.848C203.381 28.272 203.301 27.712 203.333 27.168C203.365 26.592 203.493 26.064 203.717 25.584C203.941 25.072 204.261 24.624 204.677 24.24C205.093 23.824 205.589 23.52 206.165 23.328C207.093 23.008 208.005 22.992 208.901 23.28C209.797 23.568 210.517 24.08 211.061 24.816ZM236.981 28.416L229.253 54.96C228.901 56.08 228.373 57.072 227.669 57.936C226.965 58.832 226.133 59.536 225.173 60.048C224.213 60.592 223.173 60.928 222.053 61.056C220.933 61.216 219.797 61.12 218.645 60.768C217.525 60.448 216.517 59.92 215.621 59.184C214.757 58.48 214.053 57.648 213.509 56.688C212.997 55.728 212.661 54.688 212.501 53.568C212.373 52.448 212.485 51.328 212.837 50.208C212.997 49.696 213.189 49.216 213.413 48.768C213.637 48.32 213.893 47.888 214.181 47.472L230.645 25.296C231.253 24.496 232.037 24.032 232.997 23.904C233.957 23.744 234.837 23.952 235.637 24.528C236.277 24.976 236.709 25.568 236.933 26.304C237.157 27.008 237.173 27.712 236.981 28.416ZM207.749 25.872C207.749 26.224 207.861 26.528 208.085 26.784C208.341 27.008 208.645 27.12 208.997 27.12C209.349 27.12 209.653 27.008 209.909 26.784C210.165 26.528 210.293 26.224 210.293 25.872C210.293 25.52 210.165 25.216 209.909 24.96C209.653 24.704 209.349 24.576 208.997 24.576C208.645 24.576 208.341 24.704 208.085 24.96C207.861 25.216 207.749 25.52 207.749 25.872ZM221.765 26.592C221.765 26.944 221.877 27.248 222.101 27.504C222.357 27.728 222.661 27.84 223.013 27.84C223.365 27.84 223.669 27.728 223.925 27.504C224.181 27.248 224.309 26.944 224.309 26.592C224.309 26.24 224.181 25.936 223.925 25.68C223.669 25.424 223.365 25.296 223.013 25.296C222.661 25.296 222.357 25.424 222.101 25.68C221.877 25.936 221.765 26.24 221.765 26.592ZM232.805 26.208C232.805 26.56 232.917 26.864 233.141 27.12C233.397 27.344 233.701 27.456 234.053 27.456C234.405 27.456 234.709 27.344 234.965 27.12C235.221 26.864 235.349 26.56 235.349 26.208C235.349 25.856 235.221 25.552 234.965 25.296C234.709 25.04 234.405 24.912 234.053 24.912C233.701 24.912 233.397 25.04 233.141 25.296C232.917 25.552 232.805 25.856 232.805 26.208ZM248.021 25.872C248.021 26.224 248.133 26.528 248.357 26.784C248.613 27.008 248.917 27.12 249.269 27.12C249.621 27.12 249.925 27.008 250.181 26.784C250.437 26.528 250.565 26.224 250.565 25.872C250.565 25.52 250.437 25.216 250.181 24.96C249.925 24.704 249.621 24.576 249.269 24.576C248.917 24.576 248.613 24.704 248.357 24.96C248.133 25.216 248.021 25.52 248.021 25.872Z"
            fill="url(#paint6_linear_307_170)" />
        <path
            d="M269.303 23.28C271.927 23.28 274.391 23.776 276.695 24.768C279.031 25.76 281.063 27.12 282.791 28.848C284.519 30.576 285.879 32.608 286.871 34.944C287.863 37.248 288.359 39.712 288.359 42.336C288.359 44.96 287.863 47.424 286.871 49.728C285.879 52.032 284.519 54.048 282.791 55.776C281.063 57.504 279.031 58.864 276.695 59.856C274.391 60.848 271.927 61.344 269.303 61.344C266.679 61.344 264.215 60.848 261.911 59.856C259.607 58.864 257.591 57.504 255.863 55.776C254.135 54.048 252.775 52.032 251.783 49.728C250.791 47.424 250.295 44.96 250.295 42.336C250.295 39.712 250.791 37.248 251.783 34.944C252.775 32.608 254.135 30.576 255.863 28.848C257.591 27.12 259.607 25.76 261.911 24.768C264.215 23.776 266.679 23.28 269.303 23.28ZM269.975 39.888C270.999 39.888 271.959 39.76 272.855 39.504C273.751 39.248 274.535 38.896 275.207 38.448C275.879 38 276.407 37.472 276.791 36.864C277.175 36.256 277.367 35.616 277.367 34.944C277.367 34.272 277.175 33.632 276.791 33.024C276.407 32.416 275.879 31.888 275.207 31.44C274.535 30.992 273.751 30.64 272.855 30.384C271.959 30.128 270.999 30 269.975 30C268.951 30 267.991 30.128 267.095 30.384C266.231 30.64 265.463 30.992 264.791 31.44C264.119 31.888 263.591 32.416 263.207 33.024C262.823 33.632 262.631 34.272 262.631 34.944C262.631 35.616 262.823 36.256 263.207 36.864C263.591 37.472 264.119 38 264.791 38.448C265.463 38.896 266.231 39.248 267.095 39.504C267.991 39.76 268.951 39.888 269.975 39.888ZM275.399 27.36C275.399 27.712 275.511 28.016 275.735 28.272C275.991 28.496 276.295 28.608 276.647 28.608C276.999 28.608 277.303 28.496 277.559 28.272C277.815 28.016 277.943 27.712 277.943 27.36C277.943 27.008 277.815 26.704 277.559 26.448C277.303 26.192 276.999 26.064 276.647 26.064C276.295 26.064 275.991 26.192 275.735 26.448C275.511 26.704 275.399 27.008 275.399 27.36ZM261.623 40.464C261.623 40.816 261.735 41.12 261.959 41.376C262.215 41.6 262.519 41.712 262.871 41.712C263.223 41.712 263.527 41.6 263.783 41.376C264.039 41.12 264.167 40.816 264.167 40.464C264.167 40.112 264.039 39.808 263.783 39.552C263.527 39.296 263.223 39.168 262.871 39.168C262.519 39.168 262.215 39.296 261.959 39.552C261.735 39.808 261.623 40.112 261.623 40.464Z"
            fill="url(#paint7_linear_307_170)" />
        <path
            d="M287.383 49.632L292.231 27.792C292.359 27.248 292.583 26.752 292.903 26.304C293.223 25.856 293.591 25.504 294.007 25.248C294.455 24.96 294.951 24.768 295.495 24.672C296.039 24.544 296.583 24.544 297.127 24.672C297.799 24.832 298.375 25.12 298.855 25.536C299.367 25.952 299.751 26.448 300.007 27.024L309.079 47.424C309.719 48.864 310.039 50.352 310.039 51.888C310.071 53.424 309.815 54.88 309.271 56.256C308.759 57.632 307.991 58.88 306.967 60C305.943 61.12 304.711 62 303.271 62.64C301.831 63.28 300.343 63.6 298.807 63.6C297.271 63.632 295.815 63.376 294.439 62.832C293.063 62.32 291.815 61.536 290.695 60.48C289.575 59.456 288.695 58.224 288.055 56.784C287.543 55.6 287.239 54.4 287.143 53.184C287.047 51.968 287.127 50.784 287.383 49.632ZM310.087 37.536C310.119 37.568 310.135 37.568 310.135 37.536V37.2C310.135 37.136 310.119 37.056 310.087 36.96C310.087 36.864 310.087 36.784 310.087 36.72C310.055 36.56 310.023 36.4 309.991 36.24C309.959 36.048 309.911 35.872 309.847 35.712C309.815 35.552 309.783 35.408 309.751 35.28C309.719 35.152 309.671 35.008 309.607 34.848C309.479 34.528 309.383 34.304 309.319 34.176L309.079 33.696C308.951 33.504 308.839 33.36 308.743 33.264C308.647 33.168 308.471 33.072 308.215 32.976C307.895 32.912 307.607 32.88 307.351 32.88C307.031 32.88 306.679 32.928 306.295 33.024C306.071 33.088 305.863 33.152 305.671 33.216C305.479 33.28 305.271 33.344 305.047 33.408C304.183 33.76 303.335 34.192 302.503 34.704C302.055 34.96 301.623 35.232 301.207 35.52C300.823 35.808 300.407 36.112 299.959 36.432C299.127 37.072 298.311 37.744 297.511 38.448C297.223 38.704 296.887 38.816 296.503 38.784C296.119 38.752 295.799 38.592 295.543 38.304C295.127 37.824 295.079 37.296 295.399 36.72C295.911 35.76 296.487 34.8 297.127 33.84C297.447 33.36 297.767 32.88 298.087 32.4C298.439 31.92 298.791 31.456 299.143 31.008C299.527 30.56 299.927 30.112 300.343 29.664C300.759 29.216 301.207 28.768 301.687 28.32C302.231 27.84 302.759 27.424 303.271 27.072C303.847 26.656 304.471 26.288 305.143 25.968C305.751 25.68 306.503 25.424 307.399 25.2C308.327 25.008 309.223 24.928 310.087 24.96C311.079 25.056 312.007 25.248 312.871 25.536C313.319 25.696 313.751 25.888 314.167 26.112C314.583 26.304 314.983 26.528 315.367 26.784C316.135 27.296 316.791 27.824 317.335 28.368C317.655 28.656 317.943 28.944 318.199 29.232C318.455 29.52 318.711 29.808 318.967 30.096C319.447 30.736 319.879 31.36 320.263 31.968C320.487 32.32 320.679 32.656 320.839 32.976C320.903 33.072 320.999 33.248 321.127 33.504L321.271 33.792C321.303 33.824 321.319 33.856 321.319 33.888C321.319 33.888 321.335 33.904 321.367 33.936V34.032L321.415 34.08V34.128C321.799 34.864 322.007 35.632 322.039 36.432C322.103 37.232 322.007 38 321.751 38.736C321.527 39.44 321.159 40.096 320.647 40.704C320.135 41.312 319.511 41.808 318.775 42.192C318.039 42.576 317.271 42.8 316.471 42.864C315.703 42.896 314.951 42.8 314.215 42.576C313.479 42.32 312.807 41.952 312.199 41.472C311.591 40.96 311.095 40.336 310.711 39.6C310.391 38.96 310.183 38.288 310.087 37.584V37.536ZM313.207 28.992C313.207 29.344 313.319 29.648 313.543 29.904C313.799 30.128 314.103 30.24 314.455 30.24C314.807 30.24 315.111 30.128 315.367 29.904C315.623 29.648 315.751 29.344 315.751 28.992C315.751 28.64 315.623 28.336 315.367 28.08C315.111 27.824 314.807 27.696 314.455 27.696C314.103 27.696 313.799 27.824 313.543 28.08C313.319 28.336 313.207 28.64 313.207 28.992ZM295.975 27.696C295.975 28.048 296.087 28.352 296.311 28.608C296.567 28.832 296.871 28.944 297.223 28.944C297.575 28.944 297.879 28.832 298.135 28.608C298.391 28.352 298.519 28.048 298.519 27.696C298.519 27.344 298.391 27.04 298.135 26.784C297.879 26.528 297.575 26.4 297.223 26.4C296.871 26.4 296.567 26.528 296.311 26.784C296.087 27.04 295.975 27.344 295.975 27.696Z"
            fill="url(#paint8_linear_307_170)" />
        <path
            d="M338.968 16.752L340.84 50.592C340.904 52.032 340.696 53.392 340.216 54.672C339.768 55.952 339.096 57.088 338.2 58.08C337.304 59.072 336.248 59.872 335.032 60.48C333.816 61.088 332.488 61.44 331.048 61.536C329.608 61.6 328.248 61.392 326.968 60.912C325.688 60.464 324.552 59.792 323.56 58.896C322.568 58 321.768 56.944 321.16 55.728C320.552 54.512 320.2 53.184 320.104 51.744C320.04 50.72 320.136 49.728 320.392 48.768L328.168 15.792C328.36 15.056 328.664 14.4 329.08 13.824C329.528 13.248 330.04 12.784 330.616 12.432C331.224 12.048 331.88 11.792 332.584 11.664C333.32 11.536 334.056 11.552 334.792 11.712C336.008 12 336.984 12.624 337.72 13.584C338.488 14.512 338.904 15.568 338.968 16.752ZM334.072 15.792C334.072 16.144 334.184 16.448 334.408 16.704C334.664 16.928 334.968 17.04 335.32 17.04C335.672 17.04 335.976 16.928 336.232 16.704C336.488 16.448 336.616 16.144 336.616 15.792C336.616 15.44 336.488 15.136 336.232 14.88C335.976 14.624 335.672 14.496 335.32 14.496C334.968 14.496 334.664 14.624 334.408 14.88C334.184 15.136 334.072 15.44 334.072 15.792Z"
            fill="url(#paint9_linear_307_170)" />
        <path
            d="M341.935 42.336C341.935 39.712 342.431 37.248 343.423 34.944C344.415 32.608 345.775 30.576 347.503 28.848C349.231 27.12 351.247 25.76 353.551 24.768C355.855 23.776 358.319 23.28 360.943 23.28C363.567 23.28 366.031 23.776 368.335 24.768C370.671 25.76 372.703 27.12 374.431 28.848C376.159 30.576 377.519 32.608 378.511 34.944C379.503 37.248 379.999 39.712 379.999 42.336C379.999 44.96 379.503 47.424 378.511 49.728C377.519 52.032 376.159 54.048 374.431 55.776C372.703 57.504 370.671 58.864 368.335 59.856C366.031 60.848 363.567 61.344 360.943 61.344C358.319 61.344 355.855 60.848 353.551 59.856C351.247 58.864 349.231 57.504 347.503 55.776C345.775 54.048 344.415 52.032 343.423 49.728C342.431 47.424 341.935 44.96 341.935 42.336ZM353.407 34.464C353.407 35.136 353.599 35.776 353.983 36.384C354.367 36.992 354.895 37.52 355.567 37.968C356.239 38.416 357.007 38.768 357.871 39.024C358.767 39.28 359.727 39.408 360.751 39.408C361.775 39.408 362.735 39.28 363.631 39.024C364.527 38.768 365.311 38.416 365.983 37.968C366.655 37.52 367.183 36.992 367.567 36.384C367.951 35.776 368.143 35.136 368.143 34.464C368.143 33.792 367.951 33.152 367.567 32.544C367.183 31.936 366.655 31.408 365.983 30.96C365.311 30.512 364.527 30.16 363.631 29.904C362.735 29.648 361.775 29.52 360.751 29.52C359.727 29.52 358.767 29.648 357.871 29.904C357.007 30.16 356.239 30.512 355.567 30.96C354.895 31.408 354.367 31.936 353.983 32.544C353.599 33.152 353.407 33.792 353.407 34.464ZM388.159 48.768C388.479 50.176 388.511 51.552 388.255 52.896C388.031 54.24 387.567 55.472 386.863 56.592C386.191 57.744 385.295 58.72 384.175 59.52C383.087 60.352 381.839 60.928 380.431 61.248C379.023 61.6 377.647 61.648 376.303 61.392C374.959 61.168 373.727 60.704 372.607 60C371.487 59.296 370.511 58.4 369.679 57.312C368.847 56.224 368.271 54.976 367.951 53.568C367.759 52.48 367.679 51.488 367.711 50.592L369.583 16.752C369.615 15.984 369.791 15.28 370.111 14.64C370.431 14 370.847 13.456 371.359 13.008C371.903 12.528 372.511 12.16 373.183 11.904C373.855 11.648 374.575 11.536 375.343 11.568C376.559 11.632 377.631 12.064 378.559 12.864C379.487 13.664 380.079 14.64 380.335 15.792L388.159 48.768ZM374.959 14.736C374.959 15.088 375.071 15.392 375.295 15.648C375.551 15.872 375.855 15.984 376.207 15.984C376.559 15.984 376.863 15.872 377.119 15.648C377.375 15.392 377.503 15.088 377.503 14.736C377.503 14.384 377.375 14.08 377.119 13.824C376.863 13.568 376.559 13.44 376.207 13.44C375.855 13.44 375.551 13.568 375.295 13.824C375.071 14.08 374.959 14.384 374.959 14.736ZM352.495 39.648C352.495 40 352.607 40.304 352.831 40.56C353.087 40.784 353.391 40.896 353.743 40.896C354.095 40.896 354.399 40.784 354.655 40.56C354.911 40.304 355.039 40 355.039 39.648C355.039 39.296 354.911 38.992 354.655 38.736C354.399 38.48 354.095 38.352 353.743 38.352C353.391 38.352 353.087 38.48 352.831 38.736C352.607 38.992 352.495 39.296 352.495 39.648Z"
            fill="url(#paint10_linear_307_170)" />
        <path
            d="M409.6 51.408C409.6 52.336 409.776 53.2 410.128 54C410.448 54.768 410.896 55.44 411.472 56.016C412.048 56.592 412.72 57.04 413.488 57.36C414.288 57.712 415.152 57.888 416.08 57.888C416.976 57.888 417.808 57.712 418.576 57.36C419.376 57.04 420.064 56.592 420.64 56.016C421.248 55.44 421.728 54.768 422.08 54C422.432 53.2 422.608 52.336 422.608 51.408C422.608 50.512 422.432 49.68 422.08 48.912C421.728 48.112 421.248 47.424 420.64 46.848C420.064 46.24 419.376 45.76 418.576 45.408C417.808 45.056 416.976 44.88 416.08 44.88C415.152 44.88 414.288 45.056 413.488 45.408C412.72 45.76 412.048 46.24 411.472 46.848C410.896 47.424 410.448 48.112 410.128 48.912C409.776 49.68 409.6 50.512 409.6 51.408ZM421.456 10.128L423.136 34.992C423.168 35.824 423.056 36.608 422.8 37.344C422.544 38.08 422.176 38.736 421.696 39.312C421.216 39.856 420.624 40.32 419.92 40.704C419.248 41.056 418.512 41.248 417.712 41.28C416.88 41.344 416.096 41.264 415.36 41.04C414.624 40.784 413.968 40.416 413.392 39.936C412.816 39.424 412.352 38.832 412 38.16C411.648 37.456 411.44 36.688 411.376 35.856C411.344 35.376 411.376 34.848 411.472 34.272L415.888 9.79203C416.048 9.02403 416.448 8.43203 417.088 8.01603C417.728 7.56803 418.432 7.42403 419.2 7.58403C419.84 7.74403 420.352 8.06403 420.736 8.54403C421.152 8.99203 421.392 9.52003 421.456 10.128ZM417.904 9.98403C417.904 10.336 418.016 10.64 418.24 10.896C418.496 11.12 418.8 11.232 419.152 11.232C419.504 11.232 419.808 11.12 420.064 10.896C420.32 10.64 420.448 10.336 420.448 9.98403C420.448 9.63203 420.32 9.32803 420.064 9.07203C419.808 8.81603 419.504 8.68803 419.152 8.68803C418.8 8.68803 418.496 8.81603 418.24 9.07203C418.016 9.32803 417.904 9.63203 417.904 9.98403ZM416.752 48.096C416.752 47.744 416.864 47.44 417.088 47.184C417.344 46.928 417.648 46.8 418 46.8C418.352 46.8 418.656 46.928 418.912 47.184C419.168 47.44 419.296 47.744 419.296 48.096C419.296 48.448 419.168 48.752 418.912 49.008C418.656 49.232 418.352 49.344 418 49.344C417.648 49.344 417.344 49.232 417.088 49.008C416.864 48.752 416.752 48.448 416.752 48.096Z"
            fill="url(#paint11_linear_307_170)" />
    </g>
    <defs>
        <filter id="filter0_dd_307_170" x="0.0205078" y="0.520874" width="434.121" height="78.0818"
            filterUnits="userSpaceOnUse" color-interpolation-filters="sRGB">
            <feFlood flood-opacity="0" result="BackgroundImageFix" />
            <feColorMatrix in="SourceAlpha" type="matrix"
                values="0 0 0 0 0 0 0 0 0 0 0 0 0 0 0 0 0 0 127 0" result="hardAlpha" />
            <feOffset dy="1" />
            <feGaussianBlur stdDeviation="1.5" />
            <feColorMatrix type="matrix" values="0 0 0 0 0 0 0 0 0 0 0 0 0 0 0 0 0 0 0.3 0" />
            <feBlend mode="normal" in2="BackgroundImageFix" result="effect1_dropShadow_307_170" />
            <feColorMatrix in="SourceAlpha" type="matrix"
                values="0 0 0 0 0 0 0 0 0 0 0 0 0 0 0 0 0 0 127 0" result="hardAlpha" />
            <feMorphology radius="3" operator="dilate" in="SourceAlpha"
                result="effect2_dropShadow_307_170" />
            <feOffset dy="4" />
            <feGaussianBlur stdDeviation="4" />
            <feColorMatrix type="matrix" values="0 0 0 0 0 0 0 0 0 0 0 0 0 0 0 0 0 0 0.15 0" />
            <feBlend mode="normal" in2="effect1_dropShadow_307_170"
                result="effect2_dropShadow_307_170" />
            <feBlend mode="normal" in="SourceGraphic" in2="effect2_dropShadow_307_170"
                result="shape" />
        </filter>
        <linearGradient id="paint0_linear_307_170" x1="11.0205" y1="35.5618" x2="423.142"
            y2="35.5618" gradientUnits="userSpaceOnUse">
            <stop stop-color="#E44857" />
            <stop offset="0.505" stop-color="#C711E1" />
            <stop offset="1" stop-color="#7F52FF" />
        </linearGradient>
        <linearGradient id="paint1_linear_307_170" x1="11.0205" y1="35.5618" x2="423.142"
            y2="35.5618" gradientUnits="userSpaceOnUse">
            <stop stop-color="#E44857" />
            <stop offset="0.505" stop-color="#C711E1" />
            <stop offset="1" stop-color="#7F52FF" />
        </linearGradient>
        <linearGradient id="paint2_linear_307_170" x1="11.0205" y1="35.5618" x2="423.142"
            y2="35.5618" gradientUnits="userSpaceOnUse">
            <stop stop-color="#E44857" />
            <stop offset="0.505" stop-color="#C711E1" />
            <stop offset="1" stop-color="#7F52FF" />
        </linearGradient>
        <linearGradient id="paint3_linear_307_170" x1="11.0205" y1="35.5618" x2="423.142"
            y2="35.5618" gradientUnits="userSpaceOnUse">
            <stop stop-color="#E44857" />
            <stop offset="0.505" stop-color="#C711E1" />
            <stop offset="1" stop-color="#7F52FF" />
        </linearGradient>
        <linearGradient id="paint4_linear_307_170" x1="11.0205" y1="35.5618" x2="423.142"
            y2="35.5618" gradientUnits="userSpaceOnUse">
            <stop stop-color="#E44857" />
            <stop offset="0.505" stop-color="#C711E1" />
            <stop offset="1" stop-color="#7F52FF" />
        </linearGradient>
        <linearGradient id="paint5_linear_307_170" x1="11.0205" y1="35.5618" x2="423.142"
            y2="35.5618" gradientUnits="userSpaceOnUse">
            <stop stop-color="#E44857" />
            <stop offset="0.505" stop-color="#C711E1" />
            <stop offset="1" stop-color="#7F52FF" />
        </linearGradient>
        <linearGradient id="paint6_linear_307_170" x1="11.0205" y1="35.5618" x2="423.142"
            y2="35.5618" gradientUnits="userSpaceOnUse">
            <stop stop-color="#E44857" />
            <stop offset="0.505" stop-color="#C711E1" />
            <stop offset="1" stop-color="#7F52FF" />
        </linearGradient>
        <linearGradient id="paint7_linear_307_170" x1="11.0205" y1="35.5618" x2="423.142"
            y2="35.5618" gradientUnits="userSpaceOnUse">
            <stop stop-color="#E44857" />
            <stop offset="0.505" stop-color="#C711E1" />
            <stop offset="1" stop-color="#7F52FF" />
        </linearGradient>
        <linearGradient id="paint8_linear_307_170" x1="11.0205" y1="35.5618" x2="423.142"
            y2="35.5618" gradientUnits="userSpaceOnUse">
            <stop stop-color="#E44857" />
            <stop offset="0.505" stop-color="#C711E1" />
            <stop offset="1" stop-color="#7F52FF" />
        </linearGradient>
        <linearGradient id="paint9_linear_307_170" x1="11.0205" y1="35.5618" x2="423.142"
            y2="35.5618" gradientUnits="userSpaceOnUse">
            <stop stop-color="#E44857" />
            <stop offset="0.505" stop-color="#C711E1" />
            <stop offset="1" stop-color="#7F52FF" />
        </linearGradient>
        <linearGradient id="paint10_linear_307_170" x1="11.0205" y1="35.5618" x2="423.142"
            y2="35.5618" gradientUnits="userSpaceOnUse">
            <stop stop-color="#E44857" />
            <stop offset="0.505" stop-color="#C711E1" />
            <stop offset="1" stop-color="#7F52FF" />
        </linearGradient>
        <linearGradient id="paint11_linear_307_170" x1="11.0205" y1="35.5618" x2="423.142"
            y2="35.5618" gradientUnits="userSpaceOnUse">
            <stop stop-color="#E44857" />
            <stop offset="0.505" stop-color="#C711E1" />
            <stop offset="1" stop-color="#7F52FF" />
        </linearGradient>
    </defs>
</svg>